<mxfile host="app.diagrams.net" agent="Mozilla/5.0 (X11; Linux x86_64) AppleWebKit/537.36 (KHTML, like Gecko) Chrome/125.0.0.0 Safari/537.36" version="24.8.3">
  <diagram name="Page-1" id="aaaa8250-4180-3840-79b5-4cada1eebb92">
    <mxGraphModel dx="2256" dy="846" grid="1" gridSize="10" guides="1" tooltips="1" connect="1" arrows="1" fold="1" page="1" pageScale="1" pageWidth="850" pageHeight="1100" background="none" math="0" shadow="0">
      <root>
        <mxCell id="0" />
        <mxCell id="1" parent="0" />
        <mxCell id="g0c-RjGzhL_h2LVNaWrV-43" value="" style="verticalLabelPosition=bottom;html=1;verticalAlign=top;strokeWidth=1;align=center;outlineConnect=0;dashed=0;outlineConnect=0;shape=mxgraph.aws3d.spot2;fillColor=#dae8fc;strokeColor=#6c8ebf;aspect=fixed;opacity=50;" parent="1" vertex="1">
          <mxGeometry x="-380" y="540" width="2686.66" height="1560" as="geometry" />
        </mxCell>
        <mxCell id="Ae-MPDusxzvcv9dFBdtw-24" value="" style="group;shadow=0;" vertex="1" connectable="0" parent="1">
          <mxGeometry x="1122" y="1017" width="48.74000000000001" height="27.060000000000173" as="geometry" />
        </mxCell>
        <mxCell id="Ae-MPDusxzvcv9dFBdtw-25" value="" style="verticalLabelPosition=bottom;html=1;verticalAlign=top;strokeWidth=10;shape=mxgraph.aws3d.arrowSW;fillColor=#00CC00;aspect=fixed;rounded=1;shadow=0;comic=0;fontFamily=Verdana;fontSize=12;strokeColor=#009900;flipH=1;flipV=1;" vertex="1" parent="Ae-MPDusxzvcv9dFBdtw-24">
          <mxGeometry x="31" width="17.74" height="10.13" as="geometry" />
        </mxCell>
        <mxCell id="Ae-MPDusxzvcv9dFBdtw-26" value="" style="edgeStyle=isometricEdgeStyle;endArrow=none;html=1;labelBackgroundColor=none;strokeWidth=5;fontFamily=Verdana;fontSize=12;strokeColor=#009900;" edge="1" parent="Ae-MPDusxzvcv9dFBdtw-24">
          <mxGeometry width="50" height="100" relative="1" as="geometry">
            <mxPoint x="8.620000000000118" y="22.210000000000036" as="sourcePoint" />
            <mxPoint x="37.42000000000007" y="5.210000000000036" as="targetPoint" />
            <Array as="points" />
          </mxGeometry>
        </mxCell>
        <mxCell id="Ae-MPDusxzvcv9dFBdtw-27" value="" style="verticalLabelPosition=bottom;html=1;verticalAlign=top;strokeWidth=10;shape=mxgraph.aws3d.arrowSW;fillColor=#00CC00;aspect=fixed;rounded=1;shadow=0;comic=0;fontFamily=Verdana;fontSize=12;strokeColor=#009900;flipH=0;flipV=0;" vertex="1" parent="Ae-MPDusxzvcv9dFBdtw-24">
          <mxGeometry y="16.930000000000064" width="17.74" height="10.13" as="geometry" />
        </mxCell>
        <mxCell id="g0c-RjGzhL_h2LVNaWrV-31" value="" style="group" parent="1" connectable="0" vertex="1">
          <mxGeometry x="1890" y="350" width="766.66" height="570" as="geometry" />
        </mxCell>
        <mxCell id="g0c-RjGzhL_h2LVNaWrV-37" value="" style="verticalLabelPosition=bottom;html=1;verticalAlign=top;strokeWidth=1;align=center;outlineConnect=0;dashed=0;outlineConnect=0;shape=mxgraph.aws3d.spot2;fillColor=#fff2cc;strokeColor=#FF8000;aspect=fixed;opacity=20;" parent="g0c-RjGzhL_h2LVNaWrV-31" vertex="1">
          <mxGeometry x="-190" y="10" width="876.66" height="509.03" as="geometry" />
        </mxCell>
        <mxCell id="g0c-RjGzhL_h2LVNaWrV-66" value="&lt;font size=&quot;1&quot; style=&quot;&quot;&gt;&lt;b style=&quot;font-size: 28px;&quot;&gt;Bank2&lt;/b&gt;&lt;/font&gt;" style="text;html=1;align=center;verticalAlign=middle;whiteSpace=wrap;rounded=0;rotation=32;fontStyle=2;fontSize=26;horizontal=1;spacingTop=0;spacing=0;textShadow=0;labelBackgroundColor=none;labelBorderColor=none;" parent="g0c-RjGzhL_h2LVNaWrV-31" vertex="1">
          <mxGeometry x="241.30000000000018" y="68.89999999999998" width="64" height="32" as="geometry">
            <mxPoint as="offset" />
          </mxGeometry>
        </mxCell>
        <mxCell id="g0c-RjGzhL_h2LVNaWrV-22" value="" style="verticalLabelPosition=bottom;html=1;verticalAlign=top;strokeWidth=1;align=center;outlineConnect=0;dashed=0;outlineConnect=0;shape=mxgraph.aws3d.mobile_worker;aspect=fixed;strokeColor=none;fillColor=#777777;" parent="g0c-RjGzhL_h2LVNaWrV-31" vertex="1">
          <mxGeometry x="323.5" y="172.26000000000005" width="36" height="90" as="geometry" />
        </mxCell>
        <mxCell id="g0c-RjGzhL_h2LVNaWrV-23" value="" style="verticalLabelPosition=bottom;html=1;verticalAlign=top;strokeWidth=1;align=center;outlineConnect=0;dashed=0;outlineConnect=0;shape=mxgraph.aws3d.mobile_worker;aspect=fixed;strokeColor=none;fillColor=#777777;" parent="g0c-RjGzhL_h2LVNaWrV-31" vertex="1">
          <mxGeometry x="373.5" y="202.26000000000005" width="36" height="90" as="geometry" />
        </mxCell>
        <mxCell id="g0c-RjGzhL_h2LVNaWrV-24" value="" style="verticalLabelPosition=bottom;html=1;verticalAlign=top;strokeWidth=1;align=center;outlineConnect=0;dashed=0;outlineConnect=0;shape=mxgraph.aws3d.mobile_worker;aspect=fixed;strokeColor=none;fillColor=#777777;" parent="g0c-RjGzhL_h2LVNaWrV-31" vertex="1">
          <mxGeometry x="423.5" y="230.26" width="36" height="90" as="geometry" />
        </mxCell>
        <mxCell id="g0c-RjGzhL_h2LVNaWrV-25" value="" style="verticalLabelPosition=bottom;html=1;verticalAlign=top;strokeWidth=1;align=center;outlineConnect=0;dashed=0;outlineConnect=0;shape=mxgraph.aws3d.end_user;strokeColor=none;fillColor=#777777;aspect=fixed;" parent="g0c-RjGzhL_h2LVNaWrV-31" vertex="1">
          <mxGeometry x="253.5" y="129.8" width="49" height="100.46" as="geometry" />
        </mxCell>
        <mxCell id="g0c-RjGzhL_h2LVNaWrV-26" value="" style="verticalLabelPosition=bottom;html=1;verticalAlign=top;strokeWidth=1;dashed=0;shape=mxgraph.aws3d.dashedArrowlessEdge;fillColor=#000000;aspect=fixed;rounded=1;shadow=0;comic=0;fontFamily=Verdana;fontSize=12;fontColor=#000000;flipV=1;" parent="g0c-RjGzhL_h2LVNaWrV-31" vertex="1">
          <mxGeometry y="44.299999999999955" width="248" height="141" as="geometry" />
        </mxCell>
        <mxCell id="g0c-RjGzhL_h2LVNaWrV-27" value="" style="verticalLabelPosition=bottom;html=1;verticalAlign=top;strokeWidth=1;dashed=0;shape=mxgraph.aws3d.dashedArrowlessEdge;fillColor=#000000;aspect=fixed;rounded=1;shadow=0;comic=0;fontFamily=Verdana;fontSize=12;fontColor=#000000;flipV=1;" parent="g0c-RjGzhL_h2LVNaWrV-31" vertex="1">
          <mxGeometry x="373.5" y="259.79999999999995" width="248" height="141" as="geometry" />
        </mxCell>
        <mxCell id="g0c-RjGzhL_h2LVNaWrV-28" value="" style="verticalLabelPosition=bottom;html=1;verticalAlign=top;strokeWidth=1;dashed=0;shape=mxgraph.aws3d.dashedArrowlessEdge;aspect=fixed;rounded=1;shadow=0;comic=0;fontFamily=Verdana;fontSize=12" parent="g0c-RjGzhL_h2LVNaWrV-31" vertex="1">
          <mxGeometry y="189.90000000000003" width="368.36" height="209.9" as="geometry" />
        </mxCell>
        <mxCell id="g0c-RjGzhL_h2LVNaWrV-29" value="" style="verticalLabelPosition=bottom;html=1;verticalAlign=top;strokeWidth=1;dashed=0;shape=mxgraph.aws3d.dashedArrowlessEdge;aspect=fixed;rounded=1;shadow=0;comic=0;fontFamily=Verdana;fontSize=12" parent="g0c-RjGzhL_h2LVNaWrV-31" vertex="1">
          <mxGeometry x="248" y="39.80000000000001" width="368.53" height="210" as="geometry" />
        </mxCell>
        <mxCell id="g0c-RjGzhL_h2LVNaWrV-30" value="" style="verticalLabelPosition=bottom;html=1;verticalAlign=top;strokeWidth=1;align=center;outlineConnect=0;dashed=0;outlineConnect=0;shape=mxgraph.aws3d.cloudfront;fillColor=#ECECEC;strokeColor=#5E5E5E;aspect=fixed;" parent="g0c-RjGzhL_h2LVNaWrV-31" vertex="1">
          <mxGeometry x="137.5" width="103.8" height="169.79999999999998" as="geometry" />
        </mxCell>
        <mxCell id="g0c-RjGzhL_h2LVNaWrV-40" value="" style="verticalLabelPosition=bottom;html=1;verticalAlign=top;strokeWidth=1;align=center;outlineConnect=0;dashed=0;outlineConnect=0;shape=mxgraph.aws3d.arrowSW;fillColor=#000000;aspect=fixed;" parent="g0c-RjGzhL_h2LVNaWrV-31" vertex="1">
          <mxGeometry x="20" y="159" width="144.78" height="82.73" as="geometry" />
        </mxCell>
        <mxCell id="g0c-RjGzhL_h2LVNaWrV-41" value="" style="verticalLabelPosition=bottom;html=1;verticalAlign=top;strokeWidth=1;align=center;outlineConnect=0;dashed=0;outlineConnect=0;shape=mxgraph.aws3d.customerGateway;fillColor=#ECECEC;strokeColor=#5E5E5E;aspect=fixed;flipH=1;" parent="g0c-RjGzhL_h2LVNaWrV-31" vertex="1">
          <mxGeometry x="-80" y="217.46000000000004" width="116.7" height="102.8" as="geometry" />
        </mxCell>
        <mxCell id="g0c-RjGzhL_h2LVNaWrV-46" value="" style="edgeStyle=isometricEdgeStyle;endArrow=none;html=1;labelBackgroundColor=none;strokeWidth=4;fontFamily=Verdana;fontSize=12;exitX=0.823;exitY=0.02;exitDx=0;exitDy=0;exitPerimeter=0;strokeColor=#000000;" parent="g0c-RjGzhL_h2LVNaWrV-31" source="1a8abee3a6cfdf20-7" edge="1">
          <mxGeometry width="50" height="100" relative="1" as="geometry">
            <mxPoint x="-521.6799999999994" y="250.20066000000043" as="sourcePoint" />
            <mxPoint x="-178.76" y="-5.2000000000000455" as="targetPoint" />
            <Array as="points">
              <mxPoint x="-130" y="360" />
            </Array>
          </mxGeometry>
        </mxCell>
        <mxCell id="1a8abee3a6cfdf20-2" value="" style="verticalLabelPosition=bottom;html=1;verticalAlign=top;strokeWidth=1;dashed=0;shape=mxgraph.aws3d.secureConnection;fillColor=#000000;strokeColor=#ffffff;aspect=fixed;rounded=1;shadow=0;comic=0;fontSize=12" parent="g0c-RjGzhL_h2LVNaWrV-31" vertex="1">
          <mxGeometry x="80.5" y="172.26" width="56.99999999999999" height="34" as="geometry" />
        </mxCell>
        <mxCell id="1a8abee3a6cfdf20-11" value="" style="verticalLabelPosition=bottom;html=1;verticalAlign=top;strokeWidth=1;dashed=0;shape=mxgraph.aws3d.internetGateway;fillColor=#ECECEC;strokeColor=#5E5E5E;aspect=fixed;rounded=1;shadow=0;comic=0;fontSize=12;flipH=1;flipV=0;" parent="g0c-RjGzhL_h2LVNaWrV-31" vertex="1">
          <mxGeometry x="118" y="340" width="116.7" height="102.8" as="geometry" />
        </mxCell>
        <mxCell id="Ae-MPDusxzvcv9dFBdtw-44" value="" style="image;points=[];aspect=fixed;html=1;align=center;shadow=0;dashed=0;image=img/lib/allied_telesis/computer_and_terminals/Tablet.svg;" vertex="1" parent="g0c-RjGzhL_h2LVNaWrV-31">
          <mxGeometry x="319.24" y="174.06" width="42.51" height="89.74" as="geometry" />
        </mxCell>
        <mxCell id="d5ac148becb70bc-10" value="" style="verticalLabelPosition=bottom;html=1;verticalAlign=top;strokeWidth=1;dashed=0;shape=mxgraph.aws3d.dashedArrowlessEdge;fillColor=#000000;aspect=fixed;rounded=1;shadow=0;comic=0;fontFamily=Verdana;fontSize=12;fontColor=#000000;flipV=1;" parent="1" vertex="1">
          <mxGeometry x="-50" y="587" width="1022" height="581.04" as="geometry" />
        </mxCell>
        <mxCell id="g0c-RjGzhL_h2LVNaWrV-35" value="" style="verticalLabelPosition=bottom;html=1;verticalAlign=top;strokeWidth=1;align=center;outlineConnect=0;dashed=0;outlineConnect=0;shape=mxgraph.aws3d.spot2;fillColor=#006600;strokeColor=none;aspect=fixed;opacity=3;" parent="1" vertex="1">
          <mxGeometry x="1200" y="70" width="876.66" height="509.03" as="geometry" />
        </mxCell>
        <mxCell id="g0c-RjGzhL_h2LVNaWrV-32" value="" style="group" parent="1" connectable="0" vertex="1">
          <mxGeometry x="1400" y="70" width="790" height="471.78" as="geometry" />
        </mxCell>
        <mxCell id="g0c-RjGzhL_h2LVNaWrV-2" value="" style="verticalLabelPosition=bottom;html=1;verticalAlign=top;strokeWidth=1;align=center;outlineConnect=0;dashed=0;outlineConnect=0;shape=mxgraph.aws3d.mobile_worker;aspect=fixed;strokeColor=none;fillColor=#777777;" parent="g0c-RjGzhL_h2LVNaWrV-32" vertex="1">
          <mxGeometry x="323.5" y="172.26000000000005" width="36" height="90" as="geometry" />
        </mxCell>
        <mxCell id="g0c-RjGzhL_h2LVNaWrV-3" value="" style="verticalLabelPosition=bottom;html=1;verticalAlign=top;strokeWidth=1;align=center;outlineConnect=0;dashed=0;outlineConnect=0;shape=mxgraph.aws3d.mobile_worker;aspect=fixed;strokeColor=none;fillColor=#777777;" parent="g0c-RjGzhL_h2LVNaWrV-32" vertex="1">
          <mxGeometry x="373.5" y="202.26000000000005" width="36" height="90" as="geometry" />
        </mxCell>
        <mxCell id="g0c-RjGzhL_h2LVNaWrV-4" value="" style="verticalLabelPosition=bottom;html=1;verticalAlign=top;strokeWidth=1;align=center;outlineConnect=0;dashed=0;outlineConnect=0;shape=mxgraph.aws3d.mobile_worker;aspect=fixed;strokeColor=none;fillColor=#777777;" parent="g0c-RjGzhL_h2LVNaWrV-32" vertex="1">
          <mxGeometry x="423.5" y="230.26000000000005" width="36" height="90" as="geometry" />
        </mxCell>
        <mxCell id="g0c-RjGzhL_h2LVNaWrV-6" value="" style="verticalLabelPosition=bottom;html=1;verticalAlign=top;strokeWidth=1;align=center;outlineConnect=0;dashed=0;outlineConnect=0;shape=mxgraph.aws3d.end_user;strokeColor=none;fillColor=#777777;aspect=fixed;" parent="g0c-RjGzhL_h2LVNaWrV-32" vertex="1">
          <mxGeometry x="253.5" y="129.8" width="49" height="100.46" as="geometry" />
        </mxCell>
        <mxCell id="g0c-RjGzhL_h2LVNaWrV-12" value="" style="verticalLabelPosition=bottom;html=1;verticalAlign=top;strokeWidth=1;dashed=0;shape=mxgraph.aws3d.dashedArrowlessEdge;fillColor=#000000;aspect=fixed;rounded=1;shadow=0;comic=0;fontFamily=Verdana;fontSize=12;fontColor=#000000;flipV=1;" parent="g0c-RjGzhL_h2LVNaWrV-32" vertex="1">
          <mxGeometry y="44.29999999999998" width="248" height="141" as="geometry" />
        </mxCell>
        <mxCell id="g0c-RjGzhL_h2LVNaWrV-13" value="" style="verticalLabelPosition=bottom;html=1;verticalAlign=top;strokeWidth=1;dashed=0;shape=mxgraph.aws3d.dashedArrowlessEdge;fillColor=#000000;aspect=fixed;rounded=1;shadow=0;comic=0;fontFamily=Verdana;fontSize=12;fontColor=#000000;flipV=1;" parent="g0c-RjGzhL_h2LVNaWrV-32" vertex="1">
          <mxGeometry x="373.5" y="259.8" width="248" height="141" as="geometry" />
        </mxCell>
        <mxCell id="g0c-RjGzhL_h2LVNaWrV-14" value="" style="verticalLabelPosition=bottom;html=1;verticalAlign=top;strokeWidth=1;dashed=0;shape=mxgraph.aws3d.dashedArrowlessEdge;aspect=fixed;rounded=1;shadow=0;comic=0;fontFamily=Verdana;fontSize=12" parent="g0c-RjGzhL_h2LVNaWrV-32" vertex="1">
          <mxGeometry y="189.90000000000003" width="368.36" height="209.9" as="geometry" />
        </mxCell>
        <mxCell id="g0c-RjGzhL_h2LVNaWrV-15" value="" style="verticalLabelPosition=bottom;html=1;verticalAlign=top;strokeWidth=1;dashed=0;shape=mxgraph.aws3d.dashedArrowlessEdge;aspect=fixed;rounded=1;shadow=0;comic=0;fontFamily=Verdana;fontSize=12" parent="g0c-RjGzhL_h2LVNaWrV-32" vertex="1">
          <mxGeometry x="248" y="39.80000000000001" width="368.53" height="210" as="geometry" />
        </mxCell>
        <mxCell id="g0c-RjGzhL_h2LVNaWrV-7" value="" style="verticalLabelPosition=bottom;html=1;verticalAlign=top;strokeWidth=1;align=center;outlineConnect=0;dashed=0;outlineConnect=0;shape=mxgraph.aws3d.cloudfront;fillColor=#ECECEC;strokeColor=#5E5E5E;aspect=fixed;" parent="g0c-RjGzhL_h2LVNaWrV-32" vertex="1">
          <mxGeometry x="137.5" width="103.8" height="169.79999999999998" as="geometry" />
        </mxCell>
        <mxCell id="g0c-RjGzhL_h2LVNaWrV-39" value="" style="verticalLabelPosition=bottom;html=1;verticalAlign=top;strokeWidth=1;align=center;outlineConnect=0;dashed=0;outlineConnect=0;shape=mxgraph.aws3d.arrowSW;fillColor=#000000;aspect=fixed;" parent="g0c-RjGzhL_h2LVNaWrV-32" vertex="1">
          <mxGeometry x="20" y="160" width="144.78" height="82.73" as="geometry" />
        </mxCell>
        <mxCell id="g0c-RjGzhL_h2LVNaWrV-34" value="" style="verticalLabelPosition=bottom;html=1;verticalAlign=top;strokeWidth=1;align=center;outlineConnect=0;dashed=0;outlineConnect=0;shape=mxgraph.aws3d.customerGateway;fillColor=#ECECEC;strokeColor=#5E5E5E;aspect=fixed;flipH=1;" parent="g0c-RjGzhL_h2LVNaWrV-32" vertex="1">
          <mxGeometry x="-80" y="217.46000000000004" width="116.7" height="102.8" as="geometry" />
        </mxCell>
        <mxCell id="g0c-RjGzhL_h2LVNaWrV-62" value="&lt;font style=&quot;font-size: 28px;&quot;&gt;&lt;b style=&quot;font-size: 28px;&quot;&gt;Bank1&lt;/b&gt;&lt;/font&gt;" style="text;html=1;align=center;verticalAlign=middle;whiteSpace=wrap;rounded=0;rotation=32;fontStyle=2;fontSize=28;horizontal=1;spacingTop=0;spacing=0;textShadow=0;labelBackgroundColor=none;labelBorderColor=none;" parent="g0c-RjGzhL_h2LVNaWrV-32" vertex="1">
          <mxGeometry x="246.0000000000001" y="68.89999999999995" width="64" height="32" as="geometry">
            <mxPoint as="offset" />
          </mxGeometry>
        </mxCell>
        <mxCell id="1a8abee3a6cfdf20-3" value="" style="edgeStyle=isometricEdgeStyle;endArrow=none;html=1;labelBackgroundColor=none;strokeWidth=4;fontFamily=Verdana;fontSize=12;exitX=0.669;exitY=0.618;exitDx=0;exitDy=0;exitPerimeter=0;" parent="1" source="1a8abee3a6cfdf20-25" edge="1">
          <mxGeometry width="50" height="100" relative="1" as="geometry">
            <mxPoint x="1130" y="630" as="sourcePoint" />
            <mxPoint x="1341.24" y="375.91999999999996" as="targetPoint" />
            <Array as="points" />
          </mxGeometry>
        </mxCell>
        <mxCell id="1a8abee3a6cfdf20-7" value="" style="verticalLabelPosition=bottom;html=1;verticalAlign=top;strokeWidth=1;dashed=0;shape=mxgraph.aws3d.workflowService;fillColor=#ECECEC;strokeColor=#5E5E5E;aspect=fixed;rounded=1;shadow=0;comic=0;fontSize=12" parent="1" vertex="1">
          <mxGeometry x="1730" y="1037" width="182.20000000000002" height="148.4" as="geometry" />
        </mxCell>
        <mxCell id="1a8abee3a6cfdf20-19" value="&lt;font style=&quot;font-size: 22px;&quot;&gt;&lt;b&gt;CORE&lt;br&gt;PAYGATE&lt;/b&gt;&lt;/font&gt;" style="verticalLabelPosition=bottom;html=1;verticalAlign=top;strokeWidth=1;dashed=0;shape=mxgraph.aws3d.elasticBeanstalk;fillColor=#ECECEC;strokeColor=#5E5E5E;aspect=fixed;rounded=1;shadow=0;comic=0;fontSize=12" parent="1" vertex="1">
          <mxGeometry x="1055" y="1341.31" width="182" height="140" as="geometry" />
        </mxCell>
        <mxCell id="1a8abee3a6cfdf20-1" value="" style="verticalLabelPosition=bottom;html=1;verticalAlign=top;strokeWidth=1;dashed=0;shape=mxgraph.aws3d.secureConnection;fillColor=#000000;strokeColor=#ffffff;aspect=fixed;rounded=1;shadow=0;comic=0;fontSize=12" parent="1" vertex="1">
          <mxGeometry x="1492" y="239.12" width="56.99999999999999" height="34" as="geometry" />
        </mxCell>
        <mxCell id="1a8abee3a6cfdf20-39" value="" style="verticalLabelPosition=bottom;html=1;verticalAlign=top;strokeWidth=1;dashed=0;shape=mxgraph.aws3d.arrowSE;fillColor=#000000;aspect=fixed;rounded=1;shadow=0;comic=0;fontFamily=Verdana;fontSize=12" parent="1" vertex="1">
          <mxGeometry x="1217" y="1470.44" width="131.13" height="74.56" as="geometry" />
        </mxCell>
        <mxCell id="d5ac148becb70bc-1" value="" style="verticalLabelPosition=bottom;html=1;verticalAlign=top;strokeWidth=1;dashed=0;shape=mxgraph.aws3d.arrowSE;fillColor=#000000;aspect=fixed;rounded=1;shadow=0;comic=0;fontFamily=Verdana;fontSize=12" parent="1" vertex="1">
          <mxGeometry x="1606" y="1323.5" width="99.75" height="56.5" as="geometry" />
        </mxCell>
        <mxCell id="d5ac148becb70bc-8" value="" style="verticalLabelPosition=bottom;html=1;verticalAlign=top;strokeWidth=1;dashed=0;shape=mxgraph.aws3d.dashedArrowlessEdge;aspect=fixed;rounded=1;shadow=0;comic=0;fontFamily=Verdana;fontSize=12" parent="1" vertex="1">
          <mxGeometry x="972" y="587" width="637.05" height="363" as="geometry" />
        </mxCell>
        <mxCell id="d5ac148becb70bc-9" value="" style="verticalLabelPosition=bottom;html=1;verticalAlign=top;strokeWidth=1;dashed=0;shape=mxgraph.aws3d.dashedArrowlessEdge;aspect=fixed;rounded=1;shadow=0;comic=0;fontFamily=Verdana;fontSize=12" parent="1" vertex="1">
          <mxGeometry x="-60" y="1172.05" width="631.77" height="360" as="geometry" />
        </mxCell>
        <mxCell id="g0c-RjGzhL_h2LVNaWrV-67" value="&lt;b&gt;&lt;font style=&quot;font-size: 22px;&quot;&gt;4. Scheduler&lt;/font&gt;&lt;/b&gt;&amp;nbsp;" style="verticalLabelPosition=bottom;html=1;verticalAlign=top;strokeWidth=1;align=center;outlineConnect=0;dashed=0;outlineConnect=0;shape=mxgraph.aws3d.worker;fillColor=#ECECEC;strokeColor=#5E5E5E;aspect=fixed;" parent="1" vertex="1">
          <mxGeometry x="329.99999999999994" y="1220" width="133.2" height="90" as="geometry" />
        </mxCell>
        <mxCell id="1a8abee3a6cfdf20-25" value="" style="verticalLabelPosition=bottom;html=1;verticalAlign=top;strokeWidth=1;dashed=0;shape=mxgraph.aws3d.arrowhead;aspect=fixed;rounded=1;shadow=0;comic=0;fillColor=none;fontFamily=Verdana;fontSize=12;fontColor=#000000;flipV=1;" parent="1" vertex="1">
          <mxGeometry x="1130" y="607.36" width="39" height="23" as="geometry" />
        </mxCell>
        <mxCell id="g0c-RjGzhL_h2LVNaWrV-78" value="" style="edgeStyle=isometricEdgeStyle;endArrow=none;html=1;labelBackgroundColor=none;strokeWidth=5;fontFamily=Verdana;fontSize=12" parent="1" edge="1">
          <mxGeometry width="50" height="100" relative="1" as="geometry">
            <mxPoint x="1340" y="730" as="sourcePoint" />
            <mxPoint x="1830" y="670" as="targetPoint" />
            <Array as="points">
              <mxPoint x="1520" y="660" />
            </Array>
          </mxGeometry>
        </mxCell>
        <mxCell id="g0c-RjGzhL_h2LVNaWrV-80" value="" style="edgeStyle=isometricEdgeStyle;endArrow=none;html=1;labelBackgroundColor=none;strokeWidth=5;fontFamily=Verdana;fontSize=12" parent="1" edge="1">
          <mxGeometry width="50" height="100" relative="1" as="geometry">
            <mxPoint x="1324" y="739.02" as="sourcePoint" />
            <mxPoint x="1320" y="740.7583302491976" as="targetPoint" />
            <Array as="points" />
          </mxGeometry>
        </mxCell>
        <mxCell id="g0c-RjGzhL_h2LVNaWrV-81" value="" style="verticalLabelPosition=bottom;html=1;verticalAlign=top;strokeWidth=1;dashed=0;shape=mxgraph.aws3d.arrowhead;aspect=fixed;rounded=1;shadow=0;comic=0;fillColor=none;fontFamily=Verdana;fontSize=12;fontColor=#000000;flipV=1;" parent="1" vertex="1">
          <mxGeometry x="1321.5" y="718" width="39" height="23" as="geometry" />
        </mxCell>
        <mxCell id="g0c-RjGzhL_h2LVNaWrV-102" value="&lt;font style=&quot;font-size: 22px;&quot;&gt;&lt;b&gt;CDN&lt;/b&gt;&lt;/font&gt;" style="verticalLabelPosition=bottom;html=1;verticalAlign=top;strokeWidth=1;align=center;outlineConnect=0;dashed=0;outlineConnect=0;shape=mxgraph.aws3d.dataCenter;strokeColor=#5E5E5E;aspect=fixed;" parent="1" vertex="1">
          <mxGeometry x="1710" y="1302" width="123" height="142" as="geometry" />
        </mxCell>
        <mxCell id="g0c-RjGzhL_h2LVNaWrV-107" value="" style="verticalLabelPosition=bottom;html=1;verticalAlign=top;strokeWidth=1;dashed=0;shape=mxgraph.aws3d.secureConnection;fillColor=#000000;strokeColor=#ffffff;aspect=fixed;rounded=1;shadow=0;comic=0;fontSize=12" parent="1" vertex="1">
          <mxGeometry x="1176" y="571" width="56.99999999999999" height="34" as="geometry" />
        </mxCell>
        <mxCell id="g0c-RjGzhL_h2LVNaWrV-108" value="" style="verticalLabelPosition=bottom;html=1;verticalAlign=top;strokeWidth=1;dashed=0;shape=mxgraph.aws3d.secureConnection;fillColor=#000000;strokeColor=#ffffff;aspect=fixed;rounded=1;shadow=0;comic=0;fontSize=12" parent="1" vertex="1">
          <mxGeometry x="1361" y="685" width="56.99999999999999" height="34" as="geometry" />
        </mxCell>
        <mxCell id="g0c-RjGzhL_h2LVNaWrV-118" value="&lt;b&gt;&lt;font style=&quot;font-size: 20px;&quot;&gt;3. DB&lt;/font&gt;&lt;/b&gt;&lt;div&gt;&lt;b&gt;&lt;font style=&quot;font-size: 20px;&quot;&gt;PGSQL&lt;/font&gt;&lt;/b&gt;&lt;/div&gt;" style="verticalLabelPosition=bottom;html=1;verticalAlign=top;strokeWidth=1;align=left;outlineConnect=0;dashed=0;outlineConnect=0;shape=mxgraph.aws3d.simpleDb;fillColor=#ECECEC;strokeColor=#5E5E5E;aspect=fixed;spacingLeft=-8;" parent="1" vertex="1">
          <mxGeometry x="117" y="1052.4" width="123" height="133" as="geometry" />
        </mxCell>
        <mxCell id="g0c-RjGzhL_h2LVNaWrV-124" value="" style="group" parent="1" connectable="0" vertex="1">
          <mxGeometry x="464.39" y="1073.44" width="189.61" height="115.12" as="geometry" />
        </mxCell>
        <mxCell id="g0c-RjGzhL_h2LVNaWrV-125" value="" style="verticalLabelPosition=bottom;html=1;verticalAlign=top;strokeWidth=1;dashed=0;shape=mxgraph.aws3d.arrowSE;fillColor=#000000;aspect=fixed;rounded=1;shadow=0;comic=0;fontFamily=Verdana;fontSize=12;" parent="g0c-RjGzhL_h2LVNaWrV-124" vertex="1">
          <mxGeometry x="7.079832430217242" y="4.60038363171356" width="182.5301675697828" height="103.71091116069395" as="geometry" />
        </mxCell>
        <mxCell id="g0c-RjGzhL_h2LVNaWrV-126" value="" style="verticalLabelPosition=bottom;html=1;verticalAlign=top;strokeWidth=1;dashed=0;shape=mxgraph.aws3d.arrowSE;fillColor=#000000;aspect=fixed;rounded=1;shadow=0;comic=0;fontFamily=Verdana;fontSize=12;flipV=1;flipH=1;" parent="g0c-RjGzhL_h2LVNaWrV-124" vertex="1">
          <mxGeometry width="182.5301675697828" height="103.71091116069395" as="geometry" />
        </mxCell>
        <mxCell id="g0c-RjGzhL_h2LVNaWrV-127" value="" style="group" parent="1" connectable="0" vertex="1">
          <mxGeometry x="776.39" y="890" width="189.61" height="115.12" as="geometry" />
        </mxCell>
        <mxCell id="g0c-RjGzhL_h2LVNaWrV-128" value="" style="verticalLabelPosition=bottom;html=1;verticalAlign=top;strokeWidth=1;dashed=0;shape=mxgraph.aws3d.arrowSE;fillColor=#000000;aspect=fixed;rounded=1;shadow=0;comic=0;fontFamily=Verdana;fontSize=12;" parent="g0c-RjGzhL_h2LVNaWrV-127" vertex="1">
          <mxGeometry x="7.079832430217242" y="4.60038363171356" width="182.5301675697828" height="103.71091116069395" as="geometry" />
        </mxCell>
        <mxCell id="g0c-RjGzhL_h2LVNaWrV-129" value="" style="verticalLabelPosition=bottom;html=1;verticalAlign=top;strokeWidth=1;dashed=0;shape=mxgraph.aws3d.arrowSE;fillColor=#000000;aspect=fixed;rounded=1;shadow=0;comic=0;fontFamily=Verdana;fontSize=12;flipV=1;flipH=1;" parent="g0c-RjGzhL_h2LVNaWrV-127" vertex="1">
          <mxGeometry width="182.5301675697828" height="103.71091116069395" as="geometry" />
        </mxCell>
        <mxCell id="g0c-RjGzhL_h2LVNaWrV-131" value="&lt;font style=&quot;font-size: 22px;&quot;&gt;&lt;b&gt;MPM&lt;/b&gt;&lt;/font&gt;" style="verticalLabelPosition=bottom;html=1;verticalAlign=top;strokeWidth=1;align=center;outlineConnect=0;dashed=0;outlineConnect=0;shape=mxgraph.aws3d.instance;fillColor=#ECECEC;strokeColor=#5E5E5E;aspect=fixed;" parent="1" vertex="1">
          <mxGeometry x="1360.5" y="1525" width="161.04" height="127" as="geometry" />
        </mxCell>
        <mxCell id="g0c-RjGzhL_h2LVNaWrV-132" value="" style="verticalLabelPosition=bottom;html=1;verticalAlign=top;strokeWidth=1;dashed=0;shape=mxgraph.aws3d.arrowSW;fillColor=#000000;aspect=fixed;rounded=1;shadow=0;comic=0;fontFamily=Verdana;fontSize=12" parent="1" vertex="1">
          <mxGeometry x="1630" y="1170.85" width="119" height="68" as="geometry" />
        </mxCell>
        <mxCell id="g0c-RjGzhL_h2LVNaWrV-136" value="" style="edgeStyle=orthogonalEdgeStyle;rounded=0;orthogonalLoop=1;jettySize=auto;html=1;entryX=0.5;entryY=1;entryDx=0;entryDy=0;endArrow=none;endFill=0;strokeWidth=2;dashed=1;dashPattern=1 1;" parent="1" source="g0c-RjGzhL_h2LVNaWrV-133" target="g0c-RjGzhL_h2LVNaWrV-137" edge="1">
          <mxGeometry relative="1" as="geometry">
            <mxPoint x="972.5900000000001" y="422.57000000000016" as="targetPoint" />
          </mxGeometry>
        </mxCell>
        <mxCell id="g0c-RjGzhL_h2LVNaWrV-137" value="&lt;font style=&quot;font-size: 22px;&quot;&gt;&lt;b&gt;AUTH&lt;/b&gt;&lt;/font&gt;" style="text;html=1;align=center;verticalAlign=middle;whiteSpace=wrap;rounded=0;" parent="1" vertex="1">
          <mxGeometry x="836" y="480" width="60" height="30" as="geometry" />
        </mxCell>
        <mxCell id="g0c-RjGzhL_h2LVNaWrV-138" value="" style="edgeStyle=isometricEdgeStyle;endArrow=none;html=1;labelBackgroundColor=none;strokeWidth=5;fontFamily=Verdana;fontSize=12;strokeColor=#000000;" parent="1" source="1a8abee3a6cfdf20-7" edge="1">
          <mxGeometry width="50" height="100" relative="1" as="geometry">
            <mxPoint x="1870" y="1037" as="sourcePoint" />
            <mxPoint x="2055.24" y="796.92" as="targetPoint" />
            <Array as="points">
              <mxPoint x="2100" y="880" />
            </Array>
          </mxGeometry>
        </mxCell>
        <mxCell id="g0c-RjGzhL_h2LVNaWrV-139" value="&lt;font style=&quot;font-size: 22px;&quot;&gt;&lt;b&gt;MOBILE CORE&lt;br&gt;PAYGATE&lt;/b&gt;&lt;/font&gt;" style="verticalLabelPosition=bottom;html=1;verticalAlign=top;strokeWidth=1;dashed=0;shape=mxgraph.aws3d.elasticBeanstalk;fillColor=#ECECEC;strokeColor=#5E5E5E;aspect=fixed;rounded=1;shadow=0;comic=0;fontSize=12" parent="1" vertex="1">
          <mxGeometry x="1237" y="1226.56" width="182" height="140" as="geometry" />
        </mxCell>
        <mxCell id="1a8abee3a6cfdf20-4" value="&lt;font style=&quot;font-size: 22px;&quot;&gt;&lt;b&gt;ELK&lt;/b&gt;&lt;/font&gt;" style="verticalLabelPosition=bottom;html=1;verticalAlign=top;strokeWidth=1;dashed=0;shape=mxgraph.aws3d.dynamoDb;fillColor=#ECECEC;strokeColor=#5E5E5E;aspect=fixed;rounded=1;shadow=0;comic=0;fontSize=12" parent="1" vertex="1">
          <mxGeometry x="230" y="1414" width="181.5" height="210" as="geometry" />
        </mxCell>
        <mxCell id="g0c-RjGzhL_h2LVNaWrV-140" value="&lt;font style=&quot;font-size: 15px;&quot;&gt;&lt;b&gt;Balance&lt;/b&gt;&lt;/font&gt;" style="verticalLabelPosition=bottom;html=1;verticalAlign=top;strokeWidth=1;align=center;outlineConnect=0;dashed=0;outlineConnect=0;shape=mxgraph.aws3d.file;aspect=fixed;strokeColor=#2d6195;fillColor=#ffffff;" parent="1" vertex="1">
          <mxGeometry x="1505.1" y="1579" width="30.8" height="70.6" as="geometry" />
        </mxCell>
        <mxCell id="g0c-RjGzhL_h2LVNaWrV-141" value="" style="verticalLabelPosition=bottom;html=1;verticalAlign=top;strokeWidth=1;dashed=0;shape=mxgraph.aws3d.arrowSW;fillColor=#000000;aspect=fixed;rounded=1;shadow=0;comic=0;fontFamily=Verdana;fontSize=12" parent="1" vertex="1">
          <mxGeometry x="1217.41" y="1345.39" width="54.62" height="31.21" as="geometry" />
        </mxCell>
        <mxCell id="g0c-RjGzhL_h2LVNaWrV-143" value="" style="edgeStyle=isometricEdgeStyle;endArrow=none;html=1;labelBackgroundColor=none;strokeWidth=5;fontFamily=Verdana;fontSize=12;exitX=0.835;exitY=0.225;exitDx=0;exitDy=0;exitPerimeter=0;" parent="1" source="g0c-RjGzhL_h2LVNaWrV-139" edge="1">
          <mxGeometry width="50" height="100" relative="1" as="geometry">
            <mxPoint x="1296.33" y="1218.03" as="sourcePoint" />
            <mxPoint x="1470" y="1220" as="targetPoint" />
            <Array as="points">
              <mxPoint x="1490" y="1230" />
            </Array>
          </mxGeometry>
        </mxCell>
        <mxCell id="d5ac148becb70bc-3" value="&lt;font face=&quot;Helvetica&quot; style=&quot;font-size: 22px;&quot;&gt;&lt;b style=&quot;&quot;&gt;Mobile&lt;br&gt;Platform&lt;/b&gt;&lt;/font&gt;" style="verticalLabelPosition=bottom;html=1;verticalAlign=top;strokeWidth=1;dashed=0;shape=mxgraph.aws3d.rdsMaster;fillColor=#ECECEC;strokeColor=#5E5E5E;aspect=fixed;rounded=1;shadow=0;comic=0;fontFamily=Verdana;fontSize=12" parent="1" vertex="1">
          <mxGeometry x="1492" y="1190.5" width="123" height="133" as="geometry" />
        </mxCell>
        <mxCell id="g0c-RjGzhL_h2LVNaWrV-146" value="" style="verticalLabelPosition=bottom;html=1;verticalAlign=top;strokeWidth=1;dashed=0;shape=mxgraph.aws3d.arrowhead;aspect=fixed;rounded=1;shadow=0;comic=0;fillColor=none;fontFamily=Verdana;fontSize=12;fontColor=#000000;flipV=1;" parent="1" vertex="1">
          <mxGeometry x="1387" y="1235.07" width="39" height="23" as="geometry" />
        </mxCell>
        <mxCell id="g0c-RjGzhL_h2LVNaWrV-148" value="" style="verticalLabelPosition=bottom;html=1;verticalAlign=top;strokeWidth=1;dashed=0;shape=mxgraph.aws3d.arrowSE;fillColor=#000000;aspect=fixed;rounded=1;shadow=0;comic=0;fontFamily=Verdana;fontSize=12;flipH=1;flipV=1;" parent="1" vertex="1">
          <mxGeometry x="1173" y="1217" width="85.03" height="48.35" as="geometry" />
        </mxCell>
        <mxCell id="g0c-RjGzhL_h2LVNaWrV-149" value="" style="verticalLabelPosition=bottom;html=1;verticalAlign=top;strokeWidth=1;dashed=0;shape=mxgraph.aws3d.arrowSE;fillColor=#000000;aspect=fixed;rounded=1;shadow=0;comic=0;fontFamily=Verdana;fontSize=12;flipH=1;flipV=1;" parent="1" vertex="1">
          <mxGeometry x="990" y="1326.28" width="89.61" height="50.95" as="geometry" />
        </mxCell>
        <mxCell id="g0c-RjGzhL_h2LVNaWrV-150" value="" style="verticalLabelPosition=bottom;html=1;verticalAlign=top;strokeWidth=1;dashed=0;shape=mxgraph.aws3d.arrowhead;aspect=fixed;rounded=1;shadow=0;comic=0;fillColor=#009900;fontFamily=Verdana;fontSize=12;flipV=1;strokeColor=#006600;fontColor=#006600;" parent="1" vertex="1">
          <mxGeometry x="1903" y="1041.44" width="39" height="23" as="geometry" />
        </mxCell>
        <mxCell id="Ae-MPDusxzvcv9dFBdtw-1" value="" style="group" vertex="1" connectable="0" parent="1">
          <mxGeometry x="400" y="810" width="918" height="555.5700000000002" as="geometry" />
        </mxCell>
        <mxCell id="1a8abee3a6cfdf20-38" value="" style="verticalLabelPosition=bottom;html=1;verticalAlign=top;strokeWidth=1;dashed=0;shape=mxgraph.aws3d.flatDoubleEdge;fillColor=#000000;aspect=fixed;rounded=1;shadow=0;comic=0;fontFamily=Verdana;fontSize=12;flipV=1;" parent="Ae-MPDusxzvcv9dFBdtw-1" vertex="1">
          <mxGeometry width="706.33" height="402.81" as="geometry" />
        </mxCell>
        <mxCell id="1a8abee3a6cfdf20-14" value="" style="verticalLabelPosition=bottom;html=1;verticalAlign=top;strokeWidth=1;dashed=0;shape=mxgraph.aws3d.snapshot;fillColor=#4286c5;strokeColor=#57A2D8;aspect=fixed;rounded=1;shadow=0;comic=0;fontSize=12" parent="Ae-MPDusxzvcv9dFBdtw-1" vertex="1">
          <mxGeometry x="558" y="29.5" width="92" height="60" as="geometry" />
        </mxCell>
        <mxCell id="d5ac148becb70bc-2" value="" style="verticalLabelPosition=bottom;html=1;verticalAlign=top;strokeWidth=1;dashed=0;shape=mxgraph.aws3d.snapshot;fillColor=#4286c5;strokeColor=#57A2D8;aspect=fixed;rounded=1;shadow=0;comic=0;fontFamily=Verdana;fontSize=12" parent="Ae-MPDusxzvcv9dFBdtw-1" vertex="1">
          <mxGeometry x="500" y="61.5" width="92" height="60" as="geometry" />
        </mxCell>
        <mxCell id="g0c-RjGzhL_h2LVNaWrV-89" value="" style="verticalLabelPosition=bottom;html=1;verticalAlign=top;strokeWidth=1;dashed=0;shape=mxgraph.aws3d.snapshot;fillColor=#4286c5;strokeColor=#57A2D8;aspect=fixed;rounded=1;shadow=0;comic=0;fontSize=12" parent="Ae-MPDusxzvcv9dFBdtw-1" vertex="1">
          <mxGeometry x="443" y="94.5" width="92" height="60" as="geometry" />
        </mxCell>
        <mxCell id="g0c-RjGzhL_h2LVNaWrV-90" value="" style="verticalLabelPosition=bottom;html=1;verticalAlign=top;strokeWidth=1;dashed=0;shape=mxgraph.aws3d.snapshot;fillColor=#4286c5;strokeColor=#57A2D8;aspect=fixed;rounded=1;shadow=0;comic=0;fontFamily=Verdana;fontSize=12" parent="Ae-MPDusxzvcv9dFBdtw-1" vertex="1">
          <mxGeometry x="390" y="129.76" width="82" height="53.48" as="geometry" />
        </mxCell>
        <mxCell id="g0c-RjGzhL_h2LVNaWrV-91" value="" style="verticalLabelPosition=bottom;html=1;verticalAlign=top;strokeWidth=1;dashed=0;shape=mxgraph.aws3d.snapshot;fillColor=#4286c5;strokeColor=#57A2D8;aspect=fixed;rounded=1;shadow=0;comic=0;fontFamily=Verdana;fontSize=12" parent="Ae-MPDusxzvcv9dFBdtw-1" vertex="1">
          <mxGeometry x="329" y="160.56999999999994" width="92" height="60" as="geometry" />
        </mxCell>
        <mxCell id="g0c-RjGzhL_h2LVNaWrV-92" value="" style="verticalLabelPosition=bottom;html=1;verticalAlign=top;strokeWidth=1;dashed=0;shape=mxgraph.aws3d.snapshot;fillColor=#4286c5;strokeColor=#57A2D8;aspect=fixed;rounded=1;shadow=0;comic=0;fontSize=12" parent="Ae-MPDusxzvcv9dFBdtw-1" vertex="1">
          <mxGeometry x="272" y="193.56999999999994" width="92" height="60" as="geometry" />
        </mxCell>
        <mxCell id="g0c-RjGzhL_h2LVNaWrV-93" value="" style="verticalLabelPosition=bottom;html=1;verticalAlign=top;strokeWidth=1;dashed=0;shape=mxgraph.aws3d.snapshot;fillColor=#4286c5;strokeColor=#57A2D8;aspect=fixed;rounded=1;shadow=0;comic=0;fontFamily=Verdana;fontSize=12" parent="Ae-MPDusxzvcv9dFBdtw-1" vertex="1">
          <mxGeometry x="214" y="225.56999999999994" width="92" height="60" as="geometry" />
        </mxCell>
        <mxCell id="g0c-RjGzhL_h2LVNaWrV-83" value="&lt;span style=&quot;font-style: normal;&quot;&gt;2. System Bus&lt;/span&gt;" style="text;html=1;align=center;verticalAlign=middle;whiteSpace=wrap;rounded=0;fontSize=26;fontStyle=3;rotation=-30;" parent="Ae-MPDusxzvcv9dFBdtw-1" vertex="1">
          <mxGeometry x="21.34" y="290.57" width="240" height="60" as="geometry" />
        </mxCell>
        <mxCell id="Ae-MPDusxzvcv9dFBdtw-130" value="" style="group" vertex="1" connectable="0" parent="Ae-MPDusxzvcv9dFBdtw-1">
          <mxGeometry x="410" y="253.57000000000016" width="508" height="302" as="geometry" />
        </mxCell>
        <mxCell id="Ae-MPDusxzvcv9dFBdtw-122" value="" style="group" vertex="1" connectable="0" parent="Ae-MPDusxzvcv9dFBdtw-130">
          <mxGeometry x="255" width="253" height="153" as="geometry" />
        </mxCell>
        <mxCell id="Ae-MPDusxzvcv9dFBdtw-117" value="" style="group" vertex="1" connectable="0" parent="Ae-MPDusxzvcv9dFBdtw-122">
          <mxGeometry x="107" width="146" height="91" as="geometry" />
        </mxCell>
        <mxCell id="Ae-MPDusxzvcv9dFBdtw-114" value="" style="verticalLabelPosition=bottom;html=1;verticalAlign=top;strokeWidth=1;align=center;outlineConnect=0;dashed=0;outlineConnect=0;shape=mxgraph.aws3d.ebs;fillColor=#ECECEC;strokeColor=#5E5E5E;aspect=fixed;flipH=1;" vertex="1" parent="Ae-MPDusxzvcv9dFBdtw-117">
          <mxGeometry x="54" width="92" height="60" as="geometry" />
        </mxCell>
        <mxCell id="Ae-MPDusxzvcv9dFBdtw-113" value="" style="verticalLabelPosition=bottom;html=1;verticalAlign=top;strokeWidth=1;align=center;outlineConnect=0;dashed=0;outlineConnect=0;shape=mxgraph.aws3d.ebs;fillColor=#ECECEC;strokeColor=#5E5E5E;aspect=fixed;flipH=1;" vertex="1" parent="Ae-MPDusxzvcv9dFBdtw-117">
          <mxGeometry y="31" width="92" height="60" as="geometry" />
        </mxCell>
        <mxCell id="Ae-MPDusxzvcv9dFBdtw-118" value="" style="group" vertex="1" connectable="0" parent="Ae-MPDusxzvcv9dFBdtw-122">
          <mxGeometry y="62" width="146" height="91" as="geometry" />
        </mxCell>
        <mxCell id="Ae-MPDusxzvcv9dFBdtw-119" value="" style="verticalLabelPosition=bottom;html=1;verticalAlign=top;strokeWidth=1;align=center;outlineConnect=0;dashed=0;outlineConnect=0;shape=mxgraph.aws3d.ebs;fillColor=#ECECEC;strokeColor=#5E5E5E;aspect=fixed;flipH=1;" vertex="1" parent="Ae-MPDusxzvcv9dFBdtw-118">
          <mxGeometry x="54" width="92" height="60" as="geometry" />
        </mxCell>
        <mxCell id="Ae-MPDusxzvcv9dFBdtw-120" value="" style="verticalLabelPosition=bottom;html=1;verticalAlign=top;strokeWidth=1;align=center;outlineConnect=0;dashed=0;outlineConnect=0;shape=mxgraph.aws3d.ebs;fillColor=#ECECEC;strokeColor=#5E5E5E;aspect=fixed;flipH=1;" vertex="1" parent="Ae-MPDusxzvcv9dFBdtw-118">
          <mxGeometry y="31" width="92" height="60" as="geometry" />
        </mxCell>
        <mxCell id="Ae-MPDusxzvcv9dFBdtw-121" value="" style="verticalLabelPosition=bottom;html=1;verticalAlign=top;strokeWidth=1;align=center;outlineConnect=0;dashed=0;outlineConnect=0;shape=mxgraph.aws3d.decider;fillColor=#ECECEC;strokeColor=#5E5E5E;aspect=fixed;" vertex="1" parent="Ae-MPDusxzvcv9dFBdtw-130">
          <mxGeometry x="218" y="127" width="74" height="50" as="geometry" />
        </mxCell>
        <mxCell id="Ae-MPDusxzvcv9dFBdtw-123" value="" style="group" vertex="1" connectable="0" parent="Ae-MPDusxzvcv9dFBdtw-130">
          <mxGeometry y="149" width="253" height="153" as="geometry" />
        </mxCell>
        <mxCell id="Ae-MPDusxzvcv9dFBdtw-124" value="" style="group" vertex="1" connectable="0" parent="Ae-MPDusxzvcv9dFBdtw-123">
          <mxGeometry x="107" width="146" height="91" as="geometry" />
        </mxCell>
        <mxCell id="Ae-MPDusxzvcv9dFBdtw-125" value="" style="verticalLabelPosition=bottom;html=1;verticalAlign=top;strokeWidth=1;align=center;outlineConnect=0;dashed=0;outlineConnect=0;shape=mxgraph.aws3d.ebs;fillColor=#ECECEC;strokeColor=#5E5E5E;aspect=fixed;flipH=1;" vertex="1" parent="Ae-MPDusxzvcv9dFBdtw-124">
          <mxGeometry x="54" width="92" height="60" as="geometry" />
        </mxCell>
        <mxCell id="Ae-MPDusxzvcv9dFBdtw-126" value="" style="verticalLabelPosition=bottom;html=1;verticalAlign=top;strokeWidth=1;align=center;outlineConnect=0;dashed=0;outlineConnect=0;shape=mxgraph.aws3d.ebs;fillColor=#ECECEC;strokeColor=#5E5E5E;aspect=fixed;flipH=1;" vertex="1" parent="Ae-MPDusxzvcv9dFBdtw-124">
          <mxGeometry y="31" width="92" height="60" as="geometry" />
        </mxCell>
        <mxCell id="Ae-MPDusxzvcv9dFBdtw-127" value="" style="group" vertex="1" connectable="0" parent="Ae-MPDusxzvcv9dFBdtw-123">
          <mxGeometry y="62" width="146" height="91" as="geometry" />
        </mxCell>
        <mxCell id="Ae-MPDusxzvcv9dFBdtw-128" value="" style="verticalLabelPosition=bottom;html=1;verticalAlign=top;strokeWidth=1;align=center;outlineConnect=0;dashed=0;outlineConnect=0;shape=mxgraph.aws3d.ebs;fillColor=#ECECEC;strokeColor=#5E5E5E;aspect=fixed;flipH=1;" vertex="1" parent="Ae-MPDusxzvcv9dFBdtw-127">
          <mxGeometry x="54" width="92" height="60" as="geometry" />
        </mxCell>
        <mxCell id="Ae-MPDusxzvcv9dFBdtw-129" value="" style="verticalLabelPosition=bottom;html=1;verticalAlign=top;strokeWidth=1;align=center;outlineConnect=0;dashed=0;outlineConnect=0;shape=mxgraph.aws3d.ebs;fillColor=#ECECEC;strokeColor=#5E5E5E;aspect=fixed;flipH=1;" vertex="1" parent="Ae-MPDusxzvcv9dFBdtw-127">
          <mxGeometry y="31" width="92" height="60" as="geometry" />
        </mxCell>
        <mxCell id="1a8abee3a6cfdf20-13" value="&lt;font style=&quot;font-size: 22px;&quot;&gt;&lt;b&gt;CliickHouse&lt;/b&gt;&lt;/font&gt;" style="verticalLabelPosition=bottom;html=1;verticalAlign=top;strokeWidth=1;dashed=0;shape=mxgraph.aws3d.simpleDb2;fillColor=#ECECEC;strokeColor=#5E5E5E;aspect=fixed;rounded=1;shadow=0;comic=0;fontSize=12" parent="1" vertex="1">
          <mxGeometry x="-130" y="1185.4" width="181.5" height="192.6" as="geometry" />
        </mxCell>
        <mxCell id="g0c-RjGzhL_h2LVNaWrV-142" value="" style="verticalLabelPosition=bottom;html=1;verticalAlign=top;strokeWidth=1;dashed=0;shape=mxgraph.aws3d.arrowSW;fillColor=#000000;aspect=fixed;rounded=1;shadow=0;comic=0;fontFamily=Verdana;fontSize=12" parent="1" vertex="1">
          <mxGeometry x="1037" y="1461" width="54.62" height="31.21" as="geometry" />
        </mxCell>
        <mxCell id="d5ac148becb70bc-12" value="" style="verticalLabelPosition=bottom;html=1;verticalAlign=top;strokeWidth=1;dashed=0;shape=mxgraph.aws3d.dashedArrowlessEdge;aspect=fixed;rounded=1;shadow=0;comic=0;fontFamily=Verdana;fontSize=12;flipV=1;" parent="1" vertex="1">
          <mxGeometry x="580" y="950" width="1026" height="585.11" as="geometry" />
        </mxCell>
        <mxCell id="g0c-RjGzhL_h2LVNaWrV-44" value="" style="group" parent="1" connectable="0" vertex="1">
          <mxGeometry x="1560" y="1387.71" width="123" height="142" as="geometry" />
        </mxCell>
        <mxCell id="1a8abee3a6cfdf20-22" value="&lt;font style=&quot;font-size: 22px;&quot;&gt;&lt;b&gt;Banners&lt;/b&gt;&lt;/font&gt;" style="verticalLabelPosition=bottom;html=1;verticalAlign=top;strokeWidth=1;dashed=0;shape=mxgraph.aws3d.dataCenter;fillColor=#ffffff;strokeColor=#5E5E5E;aspect=fixed;rounded=1;shadow=0;comic=0;fontSize=12" parent="g0c-RjGzhL_h2LVNaWrV-44" vertex="1">
          <mxGeometry width="123" height="142" as="geometry" />
        </mxCell>
        <mxCell id="1a8abee3a6cfdf20-23" value="" style="verticalLabelPosition=bottom;html=1;verticalAlign=top;strokeWidth=1;dashed=0;shape=mxgraph.aws3d.application2;fillColor=#86E83A;strokeColor=#B0F373;aspect=fixed;rounded=1;shadow=0;comic=0;fontSize=12" parent="g0c-RjGzhL_h2LVNaWrV-44" vertex="1">
          <mxGeometry x="31" y="3" width="62" height="53" as="geometry" />
        </mxCell>
        <mxCell id="Ae-MPDusxzvcv9dFBdtw-3" value="" style="group" vertex="1" connectable="0" parent="1">
          <mxGeometry x="799" y="1448" width="263" height="204" as="geometry" />
        </mxCell>
        <mxCell id="1a8abee3a6cfdf20-15" value="" style="verticalLabelPosition=bottom;html=1;verticalAlign=top;strokeWidth=1;dashed=0;shape=mxgraph.aws3d.application_server;fillColor=#ECECEC;strokeColor=#5E5E5E;aspect=fixed;rounded=1;shadow=0;comic=0;fontSize=12" parent="Ae-MPDusxzvcv9dFBdtw-3" vertex="1">
          <mxGeometry x="70" width="123" height="124" as="geometry" />
        </mxCell>
        <mxCell id="1a8abee3a6cfdf20-16" value="" style="verticalLabelPosition=bottom;html=1;verticalAlign=top;strokeWidth=1;dashed=0;shape=mxgraph.aws3d.application_server;fillColor=#ECECEC;strokeColor=#5E5E5E;aspect=fixed;rounded=1;shadow=0;comic=0;fontSize=12" parent="Ae-MPDusxzvcv9dFBdtw-3" vertex="1">
          <mxGeometry y="40" width="123" height="124" as="geometry" />
        </mxCell>
        <mxCell id="1a8abee3a6cfdf20-17" value="" style="verticalLabelPosition=bottom;html=1;verticalAlign=top;strokeWidth=1;dashed=0;shape=mxgraph.aws3d.application_server;fillColor=#ECECEC;strokeColor=#5E5E5E;aspect=fixed;rounded=1;shadow=0;comic=0;fontSize=12" parent="Ae-MPDusxzvcv9dFBdtw-3" vertex="1">
          <mxGeometry x="140" y="40" width="123" height="124" as="geometry" />
        </mxCell>
        <mxCell id="1a8abee3a6cfdf20-18" value="&lt;font style=&quot;font-size: 22px;&quot;&gt;&lt;b&gt;Other servises&lt;/b&gt;&lt;/font&gt;" style="verticalLabelPosition=bottom;html=1;verticalAlign=top;strokeWidth=1;dashed=0;shape=mxgraph.aws3d.application_server;fillColor=#ECECEC;strokeColor=#5E5E5E;aspect=fixed;rounded=1;shadow=0;comic=0;fontSize=12" parent="Ae-MPDusxzvcv9dFBdtw-3" vertex="1">
          <mxGeometry x="70" y="80" width="123" height="124" as="geometry" />
        </mxCell>
        <mxCell id="Ae-MPDusxzvcv9dFBdtw-36" value="&lt;font color=&quot;#000033&quot; style=&quot;font-size: 24px;&quot;&gt;Routing service&lt;/font&gt;" style="shape=rect;rounded=1;whiteSpace=wrap;html=1;shadow=0;strokeColor=none;fillColor=#B1DDF0;arcSize=30;fontSize=14;spacingLeft=42;fontStyle=1;fontColor=#FFFFFF;align=left;" vertex="1" parent="1">
          <mxGeometry x="30" y="289" width="240" height="40" as="geometry" />
        </mxCell>
        <mxCell id="Ae-MPDusxzvcv9dFBdtw-37" value="1" style="shape=ellipse;perimeter=ellipsePerimeter;fontSize=32;fontStyle=1;shadow=0;strokeColor=#ffffff;fillColor=#10739E;strokeWidth=4;fontColor=#ffffff;align=center;whiteSpace=wrap;html=1;" vertex="1" parent="1">
          <mxGeometry y="279" width="60" height="60" as="geometry" />
        </mxCell>
        <mxCell id="Ae-MPDusxzvcv9dFBdtw-42" value="" style="image;points=[];aspect=fixed;html=1;align=center;shadow=0;dashed=0;image=img/lib/allied_telesis/wireless/Access_Point_Indoor.svg;" vertex="1" parent="1">
          <mxGeometry x="130" y="1105.4" width="36.6" height="54.6" as="geometry" />
        </mxCell>
        <mxCell id="Ae-MPDusxzvcv9dFBdtw-43" value="" style="image;points=[];aspect=fixed;html=1;align=center;shadow=0;dashed=0;image=img/lib/allied_telesis/security/DVS_Surveillance_Monitor.svg;" vertex="1" parent="1">
          <mxGeometry x="433.55" y="1590" width="74.9" height="107" as="geometry" />
        </mxCell>
        <mxCell id="Ae-MPDusxzvcv9dFBdtw-48" value="" style="group;fillColor=none;" connectable="0" vertex="1" parent="1">
          <mxGeometry x="628" y="973" width="189.61" height="115.12" as="geometry" />
        </mxCell>
        <mxCell id="Ae-MPDusxzvcv9dFBdtw-49" value="" style="verticalLabelPosition=bottom;html=1;verticalAlign=top;strokeWidth=1;dashed=0;shape=mxgraph.aws3d.arrowSE;fillColor=#000000;aspect=fixed;rounded=1;shadow=0;comic=0;fontFamily=Verdana;fontSize=12;" vertex="1" parent="Ae-MPDusxzvcv9dFBdtw-48">
          <mxGeometry x="7.079832430217242" y="4.60038363171356" width="182.5301675697828" height="103.71091116069395" as="geometry" />
        </mxCell>
        <mxCell id="Ae-MPDusxzvcv9dFBdtw-50" value="" style="verticalLabelPosition=bottom;html=1;verticalAlign=top;strokeWidth=1;dashed=0;shape=mxgraph.aws3d.arrowSE;fillColor=#000000;aspect=fixed;rounded=1;shadow=0;comic=0;fontFamily=Verdana;fontSize=12;flipV=1;flipH=1;" vertex="1" parent="Ae-MPDusxzvcv9dFBdtw-48">
          <mxGeometry width="182.5301675697828" height="103.71091116069395" as="geometry" />
        </mxCell>
        <mxCell id="Ae-MPDusxzvcv9dFBdtw-51" value="" style="group" connectable="0" vertex="1" parent="1">
          <mxGeometry x="924" y="812" width="189.61" height="115.12" as="geometry" />
        </mxCell>
        <mxCell id="Ae-MPDusxzvcv9dFBdtw-52" value="" style="verticalLabelPosition=bottom;html=1;verticalAlign=top;strokeWidth=1;dashed=0;shape=mxgraph.aws3d.arrowSE;fillColor=#000000;aspect=fixed;rounded=1;shadow=0;comic=0;fontFamily=Verdana;fontSize=12;" vertex="1" parent="Ae-MPDusxzvcv9dFBdtw-51">
          <mxGeometry x="7.079832430217242" y="4.60038363171356" width="182.5301675697828" height="103.71091116069395" as="geometry" />
        </mxCell>
        <mxCell id="Ae-MPDusxzvcv9dFBdtw-53" value="" style="verticalLabelPosition=bottom;html=1;verticalAlign=top;strokeWidth=1;dashed=0;shape=mxgraph.aws3d.arrowSE;fillColor=#000000;aspect=fixed;rounded=1;shadow=0;comic=0;fontFamily=Verdana;fontSize=12;flipV=1;flipH=1;" vertex="1" parent="Ae-MPDusxzvcv9dFBdtw-51">
          <mxGeometry width="182.5301675697828" height="103.71091116069395" as="geometry" />
        </mxCell>
        <mxCell id="Ae-MPDusxzvcv9dFBdtw-59" value="" style="image;points=[];aspect=fixed;html=1;align=center;shadow=0;dashed=0;image=img/lib/allied_telesis/computer_and_terminals/Tablet.svg;" vertex="1" parent="1">
          <mxGeometry x="1719.9999999999998" y="244.11999999999995" width="42.51" height="89.74" as="geometry" />
        </mxCell>
        <mxCell id="Ae-MPDusxzvcv9dFBdtw-60" value="" style="group;shadow=0;" vertex="1" connectable="0" parent="1">
          <mxGeometry x="20" y="612.36" width="48.74000000000001" height="27.060000000000173" as="geometry" />
        </mxCell>
        <mxCell id="Ae-MPDusxzvcv9dFBdtw-61" value="" style="verticalLabelPosition=bottom;html=1;verticalAlign=top;strokeWidth=10;shape=mxgraph.aws3d.arrowSW;fillColor=#00CC00;aspect=fixed;rounded=1;shadow=0;comic=0;fontFamily=Verdana;fontSize=12;strokeColor=#009900;flipH=1;flipV=1;" vertex="1" parent="Ae-MPDusxzvcv9dFBdtw-60">
          <mxGeometry x="31" width="17.74" height="10.13" as="geometry" />
        </mxCell>
        <mxCell id="Ae-MPDusxzvcv9dFBdtw-62" value="" style="edgeStyle=isometricEdgeStyle;endArrow=none;html=1;labelBackgroundColor=none;strokeWidth=5;fontFamily=Verdana;fontSize=12;strokeColor=#009900;" edge="1" parent="Ae-MPDusxzvcv9dFBdtw-60">
          <mxGeometry width="50" height="100" relative="1" as="geometry">
            <mxPoint x="8.620000000000118" y="22.210000000000036" as="sourcePoint" />
            <mxPoint x="37.42000000000007" y="5.210000000000036" as="targetPoint" />
            <Array as="points" />
          </mxGeometry>
        </mxCell>
        <mxCell id="Ae-MPDusxzvcv9dFBdtw-63" value="" style="verticalLabelPosition=bottom;html=1;verticalAlign=top;strokeWidth=10;shape=mxgraph.aws3d.arrowSW;fillColor=#00CC00;aspect=fixed;rounded=1;shadow=0;comic=0;fontFamily=Verdana;fontSize=12;strokeColor=#009900;flipH=0;flipV=0;" vertex="1" parent="Ae-MPDusxzvcv9dFBdtw-60">
          <mxGeometry y="16.930000000000064" width="17.74" height="10.13" as="geometry" />
        </mxCell>
        <mxCell id="Ae-MPDusxzvcv9dFBdtw-64" value="&lt;font style=&quot;font-size: 24px;&quot;&gt;&lt;b&gt;GRPC&lt;/b&gt;&lt;/font&gt;" style="text;html=1;align=center;verticalAlign=middle;whiteSpace=wrap;rounded=0;" vertex="1" parent="1">
          <mxGeometry x="90" y="607.36" width="60" height="30" as="geometry" />
        </mxCell>
        <mxCell id="Ae-MPDusxzvcv9dFBdtw-65" value="" style="group;shadow=0;" vertex="1" connectable="0" parent="1">
          <mxGeometry x="806" y="1206" width="48.74000000000001" height="27.060000000000173" as="geometry" />
        </mxCell>
        <mxCell id="Ae-MPDusxzvcv9dFBdtw-66" value="" style="verticalLabelPosition=bottom;html=1;verticalAlign=top;strokeWidth=10;shape=mxgraph.aws3d.arrowSW;fillColor=#00CC00;aspect=fixed;rounded=1;shadow=0;comic=0;fontFamily=Verdana;fontSize=12;strokeColor=#009900;flipH=1;flipV=1;" vertex="1" parent="Ae-MPDusxzvcv9dFBdtw-65">
          <mxGeometry x="31" width="17.74" height="10.13" as="geometry" />
        </mxCell>
        <mxCell id="Ae-MPDusxzvcv9dFBdtw-67" value="" style="edgeStyle=isometricEdgeStyle;endArrow=none;html=1;labelBackgroundColor=none;strokeWidth=5;fontFamily=Verdana;fontSize=12;strokeColor=#009900;" edge="1" parent="Ae-MPDusxzvcv9dFBdtw-65">
          <mxGeometry width="50" height="100" relative="1" as="geometry">
            <mxPoint x="8.620000000000118" y="22.210000000000036" as="sourcePoint" />
            <mxPoint x="37.42000000000007" y="5.210000000000036" as="targetPoint" />
            <Array as="points" />
          </mxGeometry>
        </mxCell>
        <mxCell id="Ae-MPDusxzvcv9dFBdtw-68" value="" style="verticalLabelPosition=bottom;html=1;verticalAlign=top;strokeWidth=10;shape=mxgraph.aws3d.arrowSW;fillColor=#00CC00;aspect=fixed;rounded=1;shadow=0;comic=0;fontFamily=Verdana;fontSize=12;strokeColor=#009900;flipH=0;flipV=0;" vertex="1" parent="Ae-MPDusxzvcv9dFBdtw-65">
          <mxGeometry y="16.930000000000064" width="17.74" height="10.13" as="geometry" />
        </mxCell>
        <mxCell id="g0c-RjGzhL_h2LVNaWrV-113" value="" style="group" parent="1" connectable="0" vertex="1">
          <mxGeometry x="648" y="1172.05" width="197.01" height="165.01000000000022" as="geometry" />
        </mxCell>
        <mxCell id="g0c-RjGzhL_h2LVNaWrV-114" value="" style="verticalLabelPosition=bottom;html=1;verticalAlign=top;strokeWidth=1;dashed=0;shape=mxgraph.aws3d.application_server;fillColor=#fff2cc;strokeColor=#d6b656;aspect=fixed;rounded=1;shadow=0;comic=0;fontSize=12;gradientColor=none;" parent="g0c-RjGzhL_h2LVNaWrV-113" vertex="1">
          <mxGeometry x="53.75" width="91.26" height="92" as="geometry" />
        </mxCell>
        <mxCell id="g0c-RjGzhL_h2LVNaWrV-115" value="" style="verticalLabelPosition=bottom;html=1;verticalAlign=top;strokeWidth=1;dashed=0;shape=mxgraph.aws3d.application_server;fillColor=#fff2cc;strokeColor=#d6b656;aspect=fixed;rounded=1;shadow=0;comic=0;fontSize=12;gradientColor=none;" parent="g0c-RjGzhL_h2LVNaWrV-113" vertex="1">
          <mxGeometry x="105.75" y="31" width="91.26" height="92" as="geometry" />
        </mxCell>
        <mxCell id="g0c-RjGzhL_h2LVNaWrV-116" value="" style="verticalLabelPosition=bottom;html=1;verticalAlign=top;strokeWidth=1;dashed=0;shape=mxgraph.aws3d.application_server;fillColor=#fff2cc;strokeColor=#d6b656;aspect=fixed;rounded=1;shadow=0;comic=0;fontSize=12;gradientColor=none;" parent="g0c-RjGzhL_h2LVNaWrV-113" vertex="1">
          <mxGeometry y="31" width="91.26" height="92" as="geometry" />
        </mxCell>
        <mxCell id="g0c-RjGzhL_h2LVNaWrV-117" value="&lt;span style=&quot;font-size: 20px;&quot;&gt;&lt;b&gt;PAYMENTS&lt;br&gt;service&lt;/b&gt;&lt;/span&gt;" style="verticalLabelPosition=bottom;html=1;verticalAlign=top;strokeWidth=1;dashed=0;shape=mxgraph.aws3d.application_server;fillColor=#fff2cc;strokeColor=#d6b656;aspect=fixed;rounded=1;shadow=0;comic=0;fontSize=12;gradientColor=none;" parent="g0c-RjGzhL_h2LVNaWrV-113" vertex="1">
          <mxGeometry x="52" y="62" width="91.26" height="92" as="geometry" />
        </mxCell>
        <mxCell id="Ae-MPDusxzvcv9dFBdtw-72" value="" style="group;shadow=0;" vertex="1" connectable="0" parent="g0c-RjGzhL_h2LVNaWrV-113">
          <mxGeometry x="-12" y="134.95000000000005" width="48.74000000000001" height="27.060000000000173" as="geometry" />
        </mxCell>
        <mxCell id="Ae-MPDusxzvcv9dFBdtw-73" value="" style="verticalLabelPosition=bottom;html=1;verticalAlign=top;strokeWidth=10;shape=mxgraph.aws3d.arrowSW;fillColor=#00CC00;aspect=fixed;rounded=1;shadow=0;comic=0;fontFamily=Verdana;fontSize=12;strokeColor=#009900;flipH=1;flipV=1;" vertex="1" parent="Ae-MPDusxzvcv9dFBdtw-72">
          <mxGeometry x="31" width="17.74" height="10.13" as="geometry" />
        </mxCell>
        <mxCell id="Ae-MPDusxzvcv9dFBdtw-74" value="" style="edgeStyle=isometricEdgeStyle;endArrow=none;html=1;labelBackgroundColor=none;strokeWidth=5;fontFamily=Verdana;fontSize=12;strokeColor=#009900;" edge="1" parent="Ae-MPDusxzvcv9dFBdtw-72">
          <mxGeometry width="50" height="100" relative="1" as="geometry">
            <mxPoint x="8.620000000000118" y="22.210000000000036" as="sourcePoint" />
            <mxPoint x="37.42000000000007" y="5.210000000000036" as="targetPoint" />
            <Array as="points" />
          </mxGeometry>
        </mxCell>
        <mxCell id="Ae-MPDusxzvcv9dFBdtw-75" value="" style="verticalLabelPosition=bottom;html=1;verticalAlign=top;strokeWidth=10;shape=mxgraph.aws3d.arrowSW;fillColor=#00CC00;aspect=fixed;rounded=1;shadow=0;comic=0;fontFamily=Verdana;fontSize=12;strokeColor=#009900;flipH=0;flipV=0;" vertex="1" parent="Ae-MPDusxzvcv9dFBdtw-72">
          <mxGeometry y="16.930000000000064" width="17.74" height="10.13" as="geometry" />
        </mxCell>
        <mxCell id="g0c-RjGzhL_h2LVNaWrV-94" value="&lt;font style=&quot;font-size: 22px;&quot;&gt;&lt;b&gt;Logging service&lt;/b&gt;&lt;/font&gt;" style="verticalLabelPosition=bottom;html=1;verticalAlign=top;strokeWidth=1;align=center;outlineConnect=0;dashed=0;outlineConnect=0;shape=mxgraph.aws3d.dataServer;strokeColor=#5E5E5E;aspect=fixed;" parent="1" vertex="1">
          <mxGeometry x="494" y="1304.75" width="146.21" height="126" as="geometry" />
        </mxCell>
        <mxCell id="Ae-MPDusxzvcv9dFBdtw-76" value="" style="group;shadow=0;" vertex="1" connectable="0" parent="1">
          <mxGeometry x="1280" y="924" width="48.74000000000001" height="27.060000000000173" as="geometry" />
        </mxCell>
        <mxCell id="Ae-MPDusxzvcv9dFBdtw-77" value="" style="verticalLabelPosition=bottom;html=1;verticalAlign=top;strokeWidth=10;shape=mxgraph.aws3d.arrowSW;fillColor=#00CC00;aspect=fixed;rounded=1;shadow=0;comic=0;fontFamily=Verdana;fontSize=12;strokeColor=#009900;flipH=1;flipV=1;" vertex="1" parent="Ae-MPDusxzvcv9dFBdtw-76">
          <mxGeometry x="31" width="17.74" height="10.13" as="geometry" />
        </mxCell>
        <mxCell id="Ae-MPDusxzvcv9dFBdtw-78" value="" style="edgeStyle=isometricEdgeStyle;endArrow=none;html=1;labelBackgroundColor=none;strokeWidth=5;fontFamily=Verdana;fontSize=12;strokeColor=#009900;" edge="1" parent="Ae-MPDusxzvcv9dFBdtw-76">
          <mxGeometry width="50" height="100" relative="1" as="geometry">
            <mxPoint x="8.620000000000118" y="22.210000000000036" as="sourcePoint" />
            <mxPoint x="37.42000000000007" y="5.210000000000036" as="targetPoint" />
            <Array as="points" />
          </mxGeometry>
        </mxCell>
        <mxCell id="Ae-MPDusxzvcv9dFBdtw-79" value="" style="verticalLabelPosition=bottom;html=1;verticalAlign=top;strokeWidth=10;shape=mxgraph.aws3d.arrowSW;fillColor=#00CC00;aspect=fixed;rounded=1;shadow=0;comic=0;fontFamily=Verdana;fontSize=12;strokeColor=#009900;flipH=0;flipV=0;" vertex="1" parent="Ae-MPDusxzvcv9dFBdtw-76">
          <mxGeometry y="16.930000000000064" width="17.74" height="10.13" as="geometry" />
        </mxCell>
        <mxCell id="g0c-RjGzhL_h2LVNaWrV-49" value="&lt;font style=&quot;font-size: 20px;&quot;&gt;&lt;b&gt;Bank1&lt;br&gt;service&lt;/b&gt;&lt;/font&gt;" style="verticalLabelPosition=bottom;html=1;verticalAlign=top;strokeWidth=1;dashed=0;shape=mxgraph.aws3d.application_server;fillColor=#f5f5f5;strokeColor=#666666;aspect=fixed;rounded=1;shadow=0;comic=0;fontSize=12;gradientColor=none;" parent="1" vertex="1">
          <mxGeometry x="1153" y="900.0000000000002" width="123" height="124" as="geometry" />
        </mxCell>
        <mxCell id="Ae-MPDusxzvcv9dFBdtw-81" value="&lt;font style=&quot;font-size: 20px;&quot;&gt;BALANCE&lt;/font&gt;" style="verticalLabelPosition=bottom;html=1;verticalAlign=top;strokeWidth=1;align=center;outlineConnect=0;dashed=0;outlineConnect=0;shape=mxgraph.aws3d.file;aspect=fixed;strokeColor=#2d6195;fillColor=#ffffff;" vertex="1" parent="1">
          <mxGeometry x="230" y="1158.46" width="30.8" height="70.6" as="geometry" />
        </mxCell>
        <mxCell id="Ae-MPDusxzvcv9dFBdtw-80" value="&lt;font style=&quot;font-size: 20px;&quot;&gt;CARDS&lt;/font&gt;" style="verticalLabelPosition=bottom;html=1;verticalAlign=top;strokeWidth=1;align=center;outlineConnect=0;dashed=0;outlineConnect=0;shape=mxgraph.aws3d.file;aspect=fixed;strokeColor=#2d6195;fillColor=#ffffff;" vertex="1" parent="1">
          <mxGeometry x="260.8" y="1137.47" width="30.8" height="70.6" as="geometry" />
        </mxCell>
        <mxCell id="Ae-MPDusxzvcv9dFBdtw-82" value="&lt;h1 style=&quot;margin-top: 0px; font-size: 26px;&quot;&gt;&lt;span style=&quot;font-weight: 400;&quot;&gt;Историю платежей сразу реализуем в ClickHouse?&lt;/span&gt;&lt;/h1&gt;" style="text;html=1;whiteSpace=wrap;overflow=hidden;rounded=0;" vertex="1" parent="1">
          <mxGeometry x="-530" y="1014.05" width="420" height="80" as="geometry" />
        </mxCell>
        <mxCell id="Ae-MPDusxzvcv9dFBdtw-83" value="" style="endArrow=oval;html=1;fontSize=16;fontColor=#10739E;endFill=0;endSize=24;strokeWidth=5;labelBackgroundColor=none;verticalAlign=top;fontStyle=1;strokeColor=#10739E;rounded=0;exitX=0.5;exitY=1;exitDx=0;exitDy=0;entryX=-0.055;entryY=0.543;entryDx=0;entryDy=0;entryPerimeter=0;" edge="1" parent="1" source="Ae-MPDusxzvcv9dFBdtw-82" target="1a8abee3a6cfdf20-13">
          <mxGeometry x="-1" relative="1" as="geometry">
            <mxPoint x="2340" y="969" as="sourcePoint" />
            <mxPoint x="1160" y="1190" as="targetPoint" />
          </mxGeometry>
        </mxCell>
        <mxCell id="Ae-MPDusxzvcv9dFBdtw-84" value="&lt;font color=&quot;#000033&quot;&gt;&lt;span style=&quot;font-size: 24px;&quot;&gt;Kafka&lt;/span&gt;&lt;/font&gt;" style="shape=rect;rounded=1;whiteSpace=wrap;html=1;shadow=0;strokeColor=none;fillColor=#B1DDF0;arcSize=30;fontSize=14;spacingLeft=42;fontStyle=1;fontColor=#FFFFFF;align=left;" vertex="1" parent="1">
          <mxGeometry x="30" y="358" width="240" height="40" as="geometry" />
        </mxCell>
        <mxCell id="Ae-MPDusxzvcv9dFBdtw-85" value="2" style="shape=ellipse;perimeter=ellipsePerimeter;fontSize=32;fontStyle=1;shadow=0;strokeColor=#ffffff;fillColor=#10739E;strokeWidth=4;fontColor=#ffffff;align=center;whiteSpace=wrap;html=1;" vertex="1" parent="1">
          <mxGeometry y="348" width="60" height="60" as="geometry" />
        </mxCell>
        <mxCell id="Ae-MPDusxzvcv9dFBdtw-86" value="&lt;font color=&quot;#000033&quot;&gt;&lt;span style=&quot;font-size: 24px;&quot;&gt;PostgreSQL&lt;/span&gt;&lt;/font&gt;" style="shape=rect;rounded=1;whiteSpace=wrap;html=1;shadow=0;strokeColor=none;fillColor=#B1DDF0;arcSize=30;fontSize=14;spacingLeft=42;fontStyle=1;fontColor=#FFFFFF;align=left;" vertex="1" parent="1">
          <mxGeometry x="30" y="429" width="240" height="40" as="geometry" />
        </mxCell>
        <mxCell id="Ae-MPDusxzvcv9dFBdtw-87" value="3" style="shape=ellipse;perimeter=ellipsePerimeter;fontSize=32;fontStyle=1;shadow=0;strokeColor=#ffffff;fillColor=#10739E;strokeWidth=4;fontColor=#ffffff;align=center;whiteSpace=wrap;html=1;" vertex="1" parent="1">
          <mxGeometry y="419" width="60" height="60" as="geometry" />
        </mxCell>
        <mxCell id="Ae-MPDusxzvcv9dFBdtw-88" value="&lt;h1 style=&quot;margin-top: 0px; font-size: 26px;&quot;&gt;&lt;span style=&quot;font-weight: 400;&quot;&gt;Какой инструмент использовать в качестве планировщика?&lt;/span&gt;&lt;/h1&gt;" style="text;html=1;whiteSpace=wrap;overflow=hidden;rounded=0;" vertex="1" parent="1">
          <mxGeometry x="-70" y="752" width="420" height="80" as="geometry" />
        </mxCell>
        <mxCell id="Ae-MPDusxzvcv9dFBdtw-89" value="" style="endArrow=oval;html=1;fontSize=16;fontColor=#10739E;endFill=0;endSize=24;strokeWidth=5;labelBackgroundColor=none;verticalAlign=top;fontStyle=1;strokeColor=#10739E;rounded=0;exitX=0.5;exitY=1;exitDx=0;exitDy=0;" edge="1" parent="1" source="Ae-MPDusxzvcv9dFBdtw-88">
          <mxGeometry x="-1" relative="1" as="geometry">
            <mxPoint x="-310" y="1104" as="sourcePoint" />
            <mxPoint x="370" y="1210" as="targetPoint" />
          </mxGeometry>
        </mxCell>
        <mxCell id="Ae-MPDusxzvcv9dFBdtw-91" value="&lt;font color=&quot;#000033&quot;&gt;&lt;span style=&quot;font-size: 24px;&quot;&gt;Планировщик&lt;/span&gt;&lt;/font&gt;" style="shape=rect;rounded=1;whiteSpace=wrap;html=1;shadow=0;strokeColor=none;fillColor=#B1DDF0;arcSize=30;fontSize=14;spacingLeft=42;fontStyle=1;fontColor=#FFFFFF;align=left;" vertex="1" parent="1">
          <mxGeometry x="30" y="498" width="240" height="40" as="geometry" />
        </mxCell>
        <mxCell id="Ae-MPDusxzvcv9dFBdtw-92" value="4" style="shape=ellipse;perimeter=ellipsePerimeter;fontSize=32;fontStyle=1;shadow=0;strokeColor=#ffffff;fillColor=#10739E;strokeWidth=4;fontColor=#ffffff;align=center;whiteSpace=wrap;html=1;" vertex="1" parent="1">
          <mxGeometry y="488" width="60" height="60" as="geometry" />
        </mxCell>
        <mxCell id="Ae-MPDusxzvcv9dFBdtw-93" value="&lt;font style=&quot;font-size: 22px;&quot;&gt;&lt;b&gt;User Grade&lt;/b&gt;&lt;/font&gt;" style="verticalLabelPosition=bottom;html=1;verticalAlign=top;strokeWidth=1;align=center;outlineConnect=0;dashed=0;outlineConnect=0;shape=mxgraph.aws3d.application_server;fillColor=#ECECEC;strokeColor=#5E5E5E;aspect=fixed;" vertex="1" parent="1">
          <mxGeometry x="1144.71" y="1670" width="123" height="124" as="geometry" />
        </mxCell>
        <mxCell id="Ae-MPDusxzvcv9dFBdtw-94" value="" style="verticalLabelPosition=bottom;html=1;verticalAlign=top;strokeWidth=1;dashed=0;shape=mxgraph.aws3d.arrowSW;fillColor=#000000;aspect=fixed;rounded=1;shadow=0;comic=0;fontFamily=Verdana;fontSize=12" vertex="1" parent="1">
          <mxGeometry x="1270" y="1650" width="98.31" height="56.17" as="geometry" />
        </mxCell>
        <mxCell id="Ae-MPDusxzvcv9dFBdtw-95" value="" style="edgeStyle=isometricEdgeStyle;endArrow=none;html=1;labelBackgroundColor=none;strokeWidth=5;fontFamily=Verdana;fontSize=12;" edge="1" parent="1">
          <mxGeometry width="50" height="100" relative="1" as="geometry">
            <mxPoint x="1510" y="1310" as="sourcePoint" />
            <mxPoint x="1540" y="1420" as="targetPoint" />
            <Array as="points">
              <mxPoint x="1464.72" y="1381.02" />
            </Array>
          </mxGeometry>
        </mxCell>
        <mxCell id="Ae-MPDusxzvcv9dFBdtw-96" value="" style="verticalLabelPosition=bottom;html=1;verticalAlign=top;strokeWidth=1;dashed=0;shape=mxgraph.aws3d.arrowhead;aspect=fixed;rounded=1;shadow=0;comic=0;fillColor=#009900;fontFamily=Verdana;fontSize=12;flipV=1;strokeColor=#006600;fontColor=#006600;flipH=1;" vertex="1" parent="1">
          <mxGeometry x="1521.8999999999999" y="1414.1000000000001" width="39" height="23" as="geometry" />
        </mxCell>
        <mxCell id="Ae-MPDusxzvcv9dFBdtw-98" value="" style="group" vertex="1" connectable="0" parent="1">
          <mxGeometry x="909" y="558" width="495" height="362" as="geometry" />
        </mxCell>
        <mxCell id="g0c-RjGzhL_h2LVNaWrV-133" value="" style="verticalLabelPosition=bottom;html=1;verticalAlign=top;strokeWidth=1;align=center;outlineConnect=0;dashed=0;outlineConnect=0;shape=mxgraph.aws3d.securityTokenService;fillColor=#ECECEC;strokeColor=#5E5E5E;aspect=fixed;" parent="Ae-MPDusxzvcv9dFBdtw-98" vertex="1">
          <mxGeometry width="145.18" height="154.86" as="geometry" />
        </mxCell>
        <mxCell id="g0c-RjGzhL_h2LVNaWrV-134" value="" style="group" parent="Ae-MPDusxzvcv9dFBdtw-98" connectable="0" vertex="1">
          <mxGeometry x="84" y="112" width="146" height="90" as="geometry" />
        </mxCell>
        <mxCell id="g0c-RjGzhL_h2LVNaWrV-71" value="" style="verticalLabelPosition=bottom;html=1;verticalAlign=top;strokeWidth=1;align=center;outlineConnect=0;dashed=0;outlineConnect=0;shape=mxgraph.aws3d.ebs;fillColor=#ECECEC;strokeColor=#5E5E5E;aspect=fixed;" parent="g0c-RjGzhL_h2LVNaWrV-134" vertex="1">
          <mxGeometry width="92" height="60" as="geometry" />
        </mxCell>
        <mxCell id="g0c-RjGzhL_h2LVNaWrV-72" value="" style="verticalLabelPosition=bottom;html=1;verticalAlign=top;strokeWidth=1;align=center;outlineConnect=0;dashed=0;outlineConnect=0;shape=mxgraph.aws3d.ebs;fillColor=#ECECEC;strokeColor=#5E5E5E;aspect=fixed;" parent="g0c-RjGzhL_h2LVNaWrV-134" vertex="1">
          <mxGeometry x="54" y="30" width="92" height="60" as="geometry" />
        </mxCell>
        <mxCell id="g0c-RjGzhL_h2LVNaWrV-42" value="&lt;p style=&quot;line-height: 190%;&quot;&gt;&lt;b style=&quot;font-size: 22px;&quot;&gt;&lt;font style=&quot;font-size: 22px; background-color: rgb(255, 255, 255);&quot;&gt;1. Routing service&lt;/font&gt;&lt;/b&gt;&lt;/p&gt;" style="verticalLabelPosition=bottom;html=1;verticalAlign=top;strokeWidth=1;align=center;outlineConnect=0;dashed=0;outlineConnect=0;shape=mxgraph.aws3d.elasticLoadBalancing;fillColor=#ECECEC;strokeColor=#5E5E5E;aspect=fixed;" parent="Ae-MPDusxzvcv9dFBdtw-98" vertex="1">
          <mxGeometry x="164.51999999999998" y="110.86000000000001" width="175.48" height="168.17" as="geometry" />
        </mxCell>
        <mxCell id="g0c-RjGzhL_h2LVNaWrV-68" value="" style="group" parent="Ae-MPDusxzvcv9dFBdtw-98" connectable="0" vertex="1">
          <mxGeometry x="295" y="240" width="200" height="122" as="geometry" />
        </mxCell>
        <mxCell id="g0c-RjGzhL_h2LVNaWrV-58" value="" style="verticalLabelPosition=bottom;html=1;verticalAlign=top;strokeWidth=1;align=center;outlineConnect=0;dashed=0;outlineConnect=0;shape=mxgraph.aws3d.ebs;fillColor=#ECECEC;strokeColor=#5E5E5E;aspect=fixed;" parent="g0c-RjGzhL_h2LVNaWrV-68" vertex="1">
          <mxGeometry width="92" height="60" as="geometry" />
        </mxCell>
        <mxCell id="g0c-RjGzhL_h2LVNaWrV-59" value="" style="verticalLabelPosition=bottom;html=1;verticalAlign=top;strokeWidth=1;align=center;outlineConnect=0;dashed=0;outlineConnect=0;shape=mxgraph.aws3d.ebs;fillColor=#ECECEC;strokeColor=#5E5E5E;aspect=fixed;" parent="g0c-RjGzhL_h2LVNaWrV-68" vertex="1">
          <mxGeometry x="54" y="32" width="92" height="60" as="geometry" />
        </mxCell>
        <mxCell id="g0c-RjGzhL_h2LVNaWrV-60" value="" style="verticalLabelPosition=bottom;html=1;verticalAlign=top;strokeWidth=1;align=center;outlineConnect=0;dashed=0;outlineConnect=0;shape=mxgraph.aws3d.ebs;fillColor=#ECECEC;strokeColor=#5E5E5E;aspect=fixed;" parent="g0c-RjGzhL_h2LVNaWrV-68" vertex="1">
          <mxGeometry x="108" y="62" width="92" height="60" as="geometry" />
        </mxCell>
        <mxCell id="Ae-MPDusxzvcv9dFBdtw-100" value="" style="verticalLabelPosition=bottom;html=1;verticalAlign=top;strokeWidth=1;dashed=0;shape=mxgraph.aws3d.arrowhead;aspect=fixed;rounded=1;shadow=0;comic=0;fillColor=none;fontFamily=Verdana;fontSize=12;fontColor=#000000;flipV=1;strokeColor=#006600;" vertex="1" parent="1">
          <mxGeometry x="1870" y="1022.12" width="39" height="23" as="geometry" />
        </mxCell>
        <mxCell id="Ae-MPDusxzvcv9dFBdtw-103" value="" style="strokeColor=#dddddd;shadow=1;strokeWidth=1;rounded=1;absoluteArcSize=1;arcSize=2;fontSize=22;" vertex="1" parent="1">
          <mxGeometry x="2020" y="1064.44" width="202.5" height="68.24" as="geometry" />
        </mxCell>
        <mxCell id="Ae-MPDusxzvcv9dFBdtw-104" value="&lt;font style=&quot;font-size: 22px;&quot;&gt;HTTPS&lt;br&gt;Load Balancer&lt;/font&gt;" style="sketch=0;dashed=0;connectable=0;html=1;fillColor=#757575;strokeColor=none;shape=mxgraph.gcp2.network_load_balancer;part=1;labelPosition=right;verticalLabelPosition=middle;align=left;verticalAlign=middle;spacingLeft=5;fontSize=12;" vertex="1" parent="Ae-MPDusxzvcv9dFBdtw-103">
          <mxGeometry y="0.5" width="32" height="32" relative="1" as="geometry">
            <mxPoint x="5" y="-16" as="offset" />
          </mxGeometry>
        </mxCell>
        <mxCell id="Ae-MPDusxzvcv9dFBdtw-105" value="" style="edgeStyle=orthogonalEdgeStyle;rounded=0;orthogonalLoop=1;jettySize=auto;html=1;entryX=0;entryY=0.5;entryDx=0;entryDy=0;endArrow=none;endFill=0;strokeWidth=2;dashed=1;dashPattern=1 1;exitX=0.789;exitY=0.771;exitDx=0;exitDy=0;exitPerimeter=0;" edge="1" parent="1" source="1a8abee3a6cfdf20-7" target="Ae-MPDusxzvcv9dFBdtw-103">
          <mxGeometry relative="1" as="geometry">
            <mxPoint x="1990" y="1120" as="targetPoint" />
            <mxPoint x="2033" y="1245" as="sourcePoint" />
          </mxGeometry>
        </mxCell>
        <mxCell id="Ae-MPDusxzvcv9dFBdtw-106" value="&lt;b&gt;&lt;font style=&quot;font-size: 22px;&quot;&gt;Listener&lt;/font&gt;&lt;/b&gt;" style="text;html=1;align=center;verticalAlign=middle;whiteSpace=wrap;rounded=0;" vertex="1" parent="1">
          <mxGeometry x="1040" y="389" width="60" height="30" as="geometry" />
        </mxCell>
        <mxCell id="Ae-MPDusxzvcv9dFBdtw-108" value="&lt;font style=&quot;font-size: 22px;&quot;&gt;&lt;b&gt;Balance&lt;/b&gt;&lt;/font&gt;" style="verticalLabelPosition=bottom;html=1;verticalAlign=top;strokeWidth=1;align=center;outlineConnect=0;dashed=0;outlineConnect=0;shape=mxgraph.aws3d.application_server;fillColor=#ECECEC;strokeColor=#5E5E5E;aspect=fixed;" vertex="1" parent="1">
          <mxGeometry x="776.39" y="677" width="123" height="124" as="geometry" />
        </mxCell>
        <mxCell id="g0c-RjGzhL_h2LVNaWrV-112" value="" style="group" parent="1" connectable="0" vertex="1">
          <mxGeometry x="821.59" y="1072.12" width="360" height="249.92000000000002" as="geometry" />
        </mxCell>
        <mxCell id="Ae-MPDusxzvcv9dFBdtw-55" value="" style="group;shadow=0;" vertex="1" connectable="0" parent="g0c-RjGzhL_h2LVNaWrV-112">
          <mxGeometry x="155.63" y="31" width="48.74000000000001" height="27.060000000000173" as="geometry" />
        </mxCell>
        <mxCell id="Ae-MPDusxzvcv9dFBdtw-56" value="" style="verticalLabelPosition=bottom;html=1;verticalAlign=top;strokeWidth=10;shape=mxgraph.aws3d.arrowSW;fillColor=#00CC00;aspect=fixed;rounded=1;shadow=0;comic=0;fontFamily=Verdana;fontSize=12;strokeColor=#009900;flipH=1;flipV=1;" vertex="1" parent="Ae-MPDusxzvcv9dFBdtw-55">
          <mxGeometry x="31" width="17.74" height="10.13" as="geometry" />
        </mxCell>
        <mxCell id="Ae-MPDusxzvcv9dFBdtw-57" value="" style="edgeStyle=isometricEdgeStyle;endArrow=none;html=1;labelBackgroundColor=none;strokeWidth=5;fontFamily=Verdana;fontSize=12;strokeColor=#009900;" edge="1" parent="Ae-MPDusxzvcv9dFBdtw-55">
          <mxGeometry width="50" height="100" relative="1" as="geometry">
            <mxPoint x="8.620000000000118" y="22.210000000000036" as="sourcePoint" />
            <mxPoint x="37.42000000000007" y="5.210000000000036" as="targetPoint" />
            <Array as="points" />
          </mxGeometry>
        </mxCell>
        <mxCell id="Ae-MPDusxzvcv9dFBdtw-58" value="" style="verticalLabelPosition=bottom;html=1;verticalAlign=top;strokeWidth=10;shape=mxgraph.aws3d.arrowSW;fillColor=#00CC00;aspect=fixed;rounded=1;shadow=0;comic=0;fontFamily=Verdana;fontSize=12;strokeColor=#009900;flipH=0;flipV=0;" vertex="1" parent="Ae-MPDusxzvcv9dFBdtw-55">
          <mxGeometry y="16.930000000000064" width="17.74" height="10.13" as="geometry" />
        </mxCell>
        <mxCell id="g0c-RjGzhL_h2LVNaWrV-101" value="" style="verticalLabelPosition=bottom;html=1;verticalAlign=top;strokeWidth=1;dashed=0;shape=mxgraph.aws3d.application_server;fillColor=#fff2cc;strokeColor=#d6b656;aspect=fixed;rounded=1;shadow=0;comic=0;fontSize=12;gradientColor=none;" parent="g0c-RjGzhL_h2LVNaWrV-112" vertex="1">
          <mxGeometry x="53.75" width="91.26" height="92" as="geometry" />
        </mxCell>
        <mxCell id="g0c-RjGzhL_h2LVNaWrV-109" value="" style="verticalLabelPosition=bottom;html=1;verticalAlign=top;strokeWidth=1;dashed=0;shape=mxgraph.aws3d.application_server;fillColor=#fff2cc;strokeColor=#d6b656;aspect=fixed;rounded=1;shadow=0;comic=0;fontSize=12;gradientColor=none;" parent="g0c-RjGzhL_h2LVNaWrV-112" vertex="1">
          <mxGeometry x="105.75" y="31" width="91.26" height="92" as="geometry" />
        </mxCell>
        <mxCell id="g0c-RjGzhL_h2LVNaWrV-110" value="" style="verticalLabelPosition=bottom;html=1;verticalAlign=top;strokeWidth=1;dashed=0;shape=mxgraph.aws3d.application_server;fillColor=#fff2cc;strokeColor=#d6b656;aspect=fixed;rounded=1;shadow=0;comic=0;fontSize=12;gradientColor=none;" parent="g0c-RjGzhL_h2LVNaWrV-112" vertex="1">
          <mxGeometry y="31" width="91.26" height="92" as="geometry" />
        </mxCell>
        <mxCell id="g0c-RjGzhL_h2LVNaWrV-111" value="&lt;span style=&quot;font-size: 20px; background-color: rgb(255, 255, 255);&quot;&gt;&lt;b&gt;CARDS&lt;br&gt;service&lt;/b&gt;&lt;/span&gt;" style="verticalLabelPosition=bottom;html=1;verticalAlign=top;strokeWidth=1;dashed=0;shape=mxgraph.aws3d.application_server;fillColor=#fff2cc;strokeColor=#d6b656;aspect=fixed;rounded=1;shadow=0;comic=0;fontSize=12;gradientColor=none;" parent="g0c-RjGzhL_h2LVNaWrV-112" vertex="1">
          <mxGeometry x="52" y="62" width="91.26" height="92" as="geometry" />
        </mxCell>
        <mxCell id="g0c-RjGzhL_h2LVNaWrV-56" value="&lt;b style=&quot;font-size: 20px;&quot;&gt;Bank2&lt;br&gt;service&lt;/b&gt;" style="verticalLabelPosition=bottom;html=1;verticalAlign=top;strokeWidth=1;dashed=0;shape=mxgraph.aws3d.application_server;fillColor=#f5f5f5;strokeColor=#666666;aspect=fixed;rounded=1;shadow=0;comic=0;fontSize=12;gradientColor=none;" parent="g0c-RjGzhL_h2LVNaWrV-112" vertex="1">
          <mxGeometry x="187.40999999999997" y="-87.11999999999989" width="123" height="124" as="geometry" />
        </mxCell>
        <mxCell id="Ae-MPDusxzvcv9dFBdtw-134" value="" style="verticalLabelPosition=bottom;html=1;verticalAlign=top;strokeWidth=1;align=center;outlineConnect=0;dashed=0;outlineConnect=0;shape=mxgraph.aws3d.spot2;fillColor=#d80073;strokeColor=none;aspect=fixed;fontColor=#ffffff;opacity=20;" vertex="1" parent="1">
          <mxGeometry x="2069.5" y="1705.16" width="153" height="88.84" as="geometry" />
        </mxCell>
        <mxCell id="Ae-MPDusxzvcv9dFBdtw-138" value="" style="verticalLabelPosition=bottom;html=1;verticalAlign=top;strokeWidth=1;align=center;outlineConnect=0;dashed=0;outlineConnect=0;shape=mxgraph.aws3d.spot2;fillColor=#d80073;strokeColor=none;aspect=fixed;fontColor=#ffffff;opacity=20;" vertex="1" parent="1">
          <mxGeometry x="2146" y="1661" width="153" height="88.84" as="geometry" />
        </mxCell>
      </root>
    </mxGraphModel>
  </diagram>
</mxfile>
